<svg xmlns="http://www.w3.org/2000/svg" xmlns:xlink="http://www.w3.org/1999/xlink" width="1080" zoomAndPan="magnify" viewBox="0 0 810 809.999993" height="1080" preserveAspectRatio="xMidYMid meet" version="1.0"><defs><clipPath id="61ea73a7ba"><path d="M 159.566406 190 L 449 190 L 449 406 L 159.566406 406 Z M 159.566406 190 " clip-rule="nonzero"/></clipPath></defs><rect x="-81" width="972" fill="#ffffff" y="-80.999999" height="971.999992" fill-opacity="1"/><rect x="-81" width="972" fill="#ffffff" y="-80.999999" height="971.999992" fill-opacity="1"/><rect x="-81" width="972" fill="#ffffff" y="-80.999999" height="971.999992" fill-opacity="1"/><path fill="#d9d9d9" d="M 548.929688 574.214844 C 553.332031 580.367188 553.8125 587.566406 550.003906 590.296875 L 506.140625 621.734375 C 502.332031 624.460938 495.675781 621.691406 491.269531 615.539062 L 397.058594 470.125 L 309.648438 349.703125 C 305.242188 343.554688 304.769531 336.351562 308.570312 333.625 L 335.773438 314.128906 C 339.582031 311.402344 346.242188 314.175781 350.640625 320.324219 L 434.867188 439.648438 Z M 548.929688 574.214844 " fill-opacity="1" fill-rule="nonzero"/><path fill="#ff1616" d="M 502.664062 626.21875 C 497.75 626.21875 492.3125 622.890625 488.480469 617.535156 L 394.179688 471.996094 L 306.871094 351.722656 C 301.265625 343.898438 301.144531 334.730469 306.574219 330.835938 L 333.777344 311.339844 C 335.320312 310.230469 337.214844 309.648438 339.25 309.648438 C 344.167969 309.648438 349.601562 312.972656 353.433594 318.324219 L 437.585938 437.542969 L 551.71875 572.210938 C 557.3125 580.023438 557.4375 589.191406 552.003906 593.085938 L 508.140625 624.523438 C 506.59375 625.632812 504.699219 626.21875 502.664062 626.21875 Z M 339.25 316.515625 C 338.648438 316.515625 338.152344 316.652344 337.769531 316.921875 L 310.570312 336.417969 C 308.667969 337.78125 309.074219 343.007812 312.4375 347.703125 L 399.832031 468.105469 L 494.148438 613.667969 C 496.914062 617.53125 500.523438 619.347656 502.660156 619.347656 C 503.261719 619.347656 503.761719 619.210938 504.136719 618.941406 L 548.003906 587.5 C 549.890625 586.148438 549.507812 580.992188 546.214844 576.316406 L 432.0625 441.628906 L 347.835938 322.300781 C 344.992188 318.332031 341.390625 316.515625 339.25 316.515625 Z M 339.25 316.515625 " fill-opacity="1" fill-rule="nonzero"/><path fill="#ff1616" d="M 429.160156 422.265625 L 378.394531 458.648438 L 380.882812 462.0625 L 473.210938 608.824219 C 477.617188 614.980469 485.164062 617.113281 490.0625 613.601562 L 546.527344 573.132812 C 551.433594 569.617188 551.835938 561.785156 547.433594 555.628906 L 430.007812 423.472656 Z M 429.160156 422.265625 " fill-opacity="1" fill-rule="nonzero"/><path fill="#ff1616" d="M 487.339844 608.75 C 486.0625 608.75 484.75 608.566406 483.425781 608.191406 C 479.722656 607.140625 476.34375 604.691406 473.910156 601.292969 L 462.773438 583.605469 C 461.761719 582 462.246094 579.878906 463.847656 578.867188 C 465.453125 577.855469 467.570312 578.34375 468.582031 579.949219 L 479.605469 597.464844 C 481.019531 599.429688 483.082031 600.953125 485.296875 601.582031 C 487.230469 602.132812 489.035156 601.90625 490.371094 600.945312 L 498.273438 595.285156 C 499.816406 594.179688 501.960938 594.535156 503.0625 596.078125 C 504.167969 597.621094 503.8125 599.765625 502.269531 600.871094 L 494.367188 606.53125 C 492.324219 607.996094 489.90625 608.75 487.339844 608.75 Z M 487.339844 608.75 " fill-opacity="1" fill-rule="nonzero"/><path fill="#d9d9d9" d="M 444.175781 230.246094 C 407.394531 189.441406 345.058594 181.925781 299.359375 214.675781 C 297.839844 215.761719 296.453125 216.957031 295.011719 218.101562 L 218.164062 273.175781 C 214.003906 276.160156 213.046875 281.945312 216.027344 286.109375 L 219.03125 290.304688 C 217.816406 290.6875 216.625 291.222656 215.527344 292.007812 L 206.105469 298.765625 L 202.433594 293.640625 C 199.453125 289.476562 194.070312 288.234375 190.40625 290.859375 L 166.453125 308.027344 C 162.792969 310.652344 162.234375 316.152344 165.210938 320.3125 L 220.632812 397.726562 C 223.609375 401.890625 228.996094 403.125 232.65625 400.5 L 256.609375 383.335938 C 260.269531 380.710938 260.832031 375.210938 257.851562 371.050781 L 254.179688 365.921875 L 263.601562 359.171875 C 264.699219 358.382812 265.59375 357.425781 266.34375 356.402344 L 269.347656 360.601562 C 272.324219 364.757812 278.113281 365.710938 282.269531 362.734375 L 368.839844 300.6875 C 372.996094 297.707031 373.953125 291.921875 370.980469 287.761719 L 342.800781 248.398438 C 371.382812 229.105469 401.832031 228.414062 432.785156 238.410156 C 432.785156 238.410156 434.929688 240.535156 439.832031 237.039062 C 448.082031 231.152344 444.175781 230.246094 444.175781 230.246094 Z M 444.175781 230.246094 " fill-opacity="1" fill-rule="nonzero"/><g clip-path="url(#61ea73a7ba)"><path fill="#ff1616" d="M 228.289062 405.308594 C 224.25 405.308594 220.34375 403.222656 217.839844 399.722656 L 162.421875 322.3125 C 160.492188 319.621094 159.609375 316.398438 159.925781 313.25 C 160.261719 309.929688 161.867188 307.085938 164.453125 305.234375 L 188.40625 288.066406 C 190.246094 286.746094 192.449219 286.046875 194.769531 286.046875 C 198.808594 286.046875 202.714844 288.136719 205.222656 291.636719 L 206.890625 293.972656 L 213.523438 289.214844 C 213.632812 289.136719 213.746094 289.058594 213.859375 288.984375 L 213.234375 288.109375 C 209.160156 282.417969 210.472656 274.46875 216.160156 270.386719 L 293.011719 215.3125 L 294.175781 214.367188 C 295.214844 213.519531 296.253906 212.671875 297.359375 211.882812 C 316.636719 198.070312 339.316406 190.769531 362.949219 190.769531 C 394.652344 190.769531 424.972656 204.121094 446.25 227.421875 C 447.238281 227.996094 448.152344 228.988281 448.445312 230.460938 C 449.15625 234.050781 445.496094 237.214844 441.820312 239.832031 C 439.359375 241.589844 437.003906 242.480469 434.820312 242.480469 C 433.175781 242.480469 431.988281 241.980469 431.238281 241.519531 C 418.6875 237.511719 406.625 235.480469 395.378906 235.480469 C 378.15625 235.480469 362.511719 240.011719 347.683594 249.316406 L 373.773438 285.757812 C 377.84375 291.453125 376.53125 299.402344 370.84375 303.476562 L 284.273438 365.523438 C 282.101562 367.078125 279.546875 367.898438 276.882812 367.898438 C 272.796875 367.898438 268.9375 365.917969 266.558594 362.597656 L 265.929688 361.722656 C 265.824219 361.804688 265.714844 361.882812 265.605469 361.964844 L 258.96875 366.71875 L 260.644531 369.054688 C 264.714844 374.746094 263.804688 382.40625 258.609375 386.132812 L 234.652344 403.300781 C 232.8125 404.613281 230.609375 405.308594 228.289062 405.308594 Z M 194.769531 292.917969 C 193.878906 292.917969 193.082031 293.164062 192.402344 293.648438 L 168.449219 310.816406 C 167.492188 311.503906 166.890625 312.613281 166.757812 313.9375 C 166.605469 315.425781 167.046875 316.980469 168 318.3125 L 223.421875 395.726562 C 225.214844 398.234375 228.601562 399.179688 230.65625 397.707031 L 254.609375 380.542969 C 256.730469 379.023438 256.933594 375.660156 255.0625 373.050781 L 249.390625 365.132812 L 261.605469 356.378906 C 262.316406 355.867188 262.964844 355.210938 263.582031 354.367188 L 266.386719 350.550781 L 272.140625 358.597656 C 273.941406 361.109375 277.742188 361.75 280.277344 359.9375 L 366.847656 297.894531 C 369.457031 296.019531 370.0625 292.371094 368.191406 289.757812 L 337.957031 247.527344 L 340.886719 245.550781 C 357.535156 234.3125 375.871094 228.617188 395.382812 228.617188 C 407.492188 228.617188 420.433594 230.8125 433.84375 235.144531 L 434.621094 235.394531 L 434.835938 235.605469 C 435.285156 235.582031 436.234375 235.390625 437.84375 234.242188 C 439.382812 233.144531 440.332031 232.328125 440.914062 231.761719 C 420.949219 210.0625 392.597656 197.640625 362.953125 197.640625 C 340.761719 197.640625 319.464844 204.5 301.359375 217.472656 C 300.371094 218.183594 299.441406 218.941406 298.511719 219.699219 L 297.148438 220.800781 L 220.164062 275.976562 C 217.550781 277.851562 216.945312 281.503906 218.816406 284.113281 L 224.585938 292.175781 L 220.054688 293.589844 C 219.0625 293.902344 218.238281 294.296875 217.527344 294.804688 L 205.3125 303.5625 L 199.644531 295.644531 C 198.441406 293.960938 196.574219 292.917969 194.769531 292.917969 Z M 194.769531 292.917969 " fill-opacity="1" fill-rule="nonzero"/></g><path fill="#d9d9d9" d="M 192.960938 302.128906 L 180.746094 310.882812 C 177.085938 313.507812 176.527344 319.011719 179.503906 323.167969 L 189.242188 336.765625 " fill-opacity="1" fill-rule="nonzero"/><path fill="#ff1616" d="M 189.242188 340.203125 C 188.171875 340.203125 187.117188 339.703125 186.449219 338.769531 L 176.714844 325.171875 C 174.785156 322.480469 173.902344 319.261719 174.21875 316.109375 C 174.554688 312.792969 176.164062 309.945312 178.746094 308.09375 L 190.960938 299.339844 C 192.507812 298.234375 194.644531 298.589844 195.75 300.128906 C 196.855469 301.671875 196.5 303.816406 194.960938 304.921875 L 182.742188 313.679688 C 181.785156 314.367188 181.183594 315.472656 181.050781 316.800781 C 180.902344 318.289062 181.339844 319.84375 182.296875 321.171875 L 192.03125 334.769531 C 193.132812 336.3125 192.777344 338.460938 191.238281 339.5625 C 190.632812 339.996094 189.933594 340.203125 189.242188 340.203125 Z M 189.242188 340.203125 " fill-opacity="1" fill-rule="nonzero"/><path fill="#ff1616" d="M 443.433594 378.15625 C 437.6875 372.050781 426.964844 372.824219 419.480469 379.875 L 413.1875 385.808594 L 408.367188 390.351562 " fill-opacity="1" fill-rule="nonzero"/><path fill="#ff1616" d="M 408.367188 393.785156 C 407.453125 393.785156 406.542969 393.421875 405.867188 392.703125 C 404.566406 391.324219 404.632812 389.148438 406.011719 387.847656 L 417.125 377.375 C 425.972656 369.039062 438.898438 368.328125 445.929688 375.796875 C 447.230469 377.179688 447.164062 379.355469 445.785156 380.65625 C 444.402344 381.957031 442.230469 381.890625 440.933594 380.511719 C 436.492188 375.792969 427.921875 376.632812 421.832031 382.375 L 410.714844 392.851562 C 410.054688 393.476562 409.210938 393.785156 408.367188 393.785156 Z M 408.367188 393.785156 " fill-opacity="1" fill-rule="nonzero"/><path fill="#d9d9d9" d="M 367.84375 514.710938 C 368.070312 514.523438 368.300781 514.34375 368.511719 514.140625 L 392.742188 491.304688 L 480.015625 409.054688 L 504.25 386.214844 C 504.460938 386.015625 504.65625 385.792969 504.855469 385.582031 C 515.441406 389.875 526.761719 391.859375 538.039062 391.5 C 557.390625 391.070312 576.65625 383.765625 591.859375 369.4375 C 615.152344 347.488281 622.597656 315.011719 613.773438 286.34375 L 613.140625 286.945312 C 613.085938 286.75 613.035156 286.558594 612.976562 286.363281 L 556.550781 339.542969 L 511.746094 291.949219 L 570.429688 236.644531 C 541.199219 223.058594 505.414062 227.707031 480.515625 251.167969 C 479.101562 252.503906 477.753906 253.878906 476.453125 255.292969 L 476.113281 254.921875 C 453.957031 278.621094 448.492188 312.542969 460.304688 341.253906 L 437.363281 362.878906 L 349.226562 445.941406 L 326.285156 467.5625 C 298.347656 454.050781 264.171875 457.480469 239.210938 478.1875 L 239.554688 478.554688 C 238.070312 479.765625 236.613281 481.03125 235.199219 482.359375 C 210.304688 505.824219 203.523438 541.292969 215.335938 571.292969 L 274.019531 515.992188 L 318.824219 563.582031 L 262.398438 616.761719 C 262.589844 616.832031 262.777344 616.894531 262.96875 616.960938 L 262.332031 617.558594 C 290.40625 628.082031 323.25 622.589844 346.542969 600.632812 C 361.746094 586.304688 370.1875 567.5 371.765625 548.203125 C 372.800781 536.960938 371.492188 525.539062 367.84375 514.710938 Z M 367.84375 514.710938 " fill-opacity="1" fill-rule="nonzero"/><path fill="#ff1616" d="M 290.90625 626.164062 C 290.902344 626.164062 290.90625 626.164062 290.90625 626.164062 C 280.683594 626.164062 270.664062 624.351562 261.125 620.777344 C 260.011719 620.359375 259.195312 619.398438 258.964844 618.234375 C 258.875 617.777344 258.875 617.320312 258.96875 616.875 C 258.9375 615.898438 259.320312 614.945312 260.046875 614.261719 L 313.972656 563.441406 L 273.875 520.851562 L 217.691406 573.796875 C 216.863281 574.578125 215.703125 574.898438 214.589844 574.648438 C 213.480469 574.402344 212.5625 573.617188 212.144531 572.554688 C 199.378906 540.132812 207.507812 503.75 232.847656 479.863281 C 233.839844 478.929688 234.867188 478.011719 235.960938 477.082031 C 236.167969 476.488281 236.53125 475.957031 237.019531 475.550781 C 252.160156 462.988281 271.335938 456.070312 291.007812 456.070312 C 302.902344 456.070312 314.816406 458.621094 325.625 463.46875 L 456.257812 340.351562 C 444.894531 310.34375 451.582031 276.136719 473.605469 252.578125 C 474.039062 252.109375 474.597656 251.78125 475.199219 251.613281 C 476.179688 250.59375 477.167969 249.609375 478.160156 248.671875 C 493.914062 233.824219 514.503906 225.648438 536.136719 225.648438 C 548.421875 225.648438 560.78125 228.375 571.875 233.53125 C 572.910156 234.011719 573.636719 234.972656 573.816406 236.097656 C 573.996094 237.222656 573.609375 238.367188 572.78125 239.148438 L 516.597656 292.097656 L 556.695312 334.6875 L 610.621094 283.867188 C 611.34375 283.179688 612.320312 282.839844 613.296875 282.945312 C 613.742188 282.886719 614.199219 282.910156 614.644531 283.027344 C 615.789062 283.328125 616.703125 284.203125 617.050781 285.335938 C 626.628906 316.453125 617.875 349.640625 594.207031 371.941406 C 578.96875 386.304688 559.046875 394.472656 538.109375 394.9375 C 537.25 394.964844 536.351562 394.976562 535.457031 394.976562 C 525.21875 394.976562 515.214844 393.164062 505.675781 389.589844 L 371.789062 515.769531 C 375.0625 526.390625 376.203125 537.394531 375.179688 548.519531 C 373.46875 569.359375 364.132812 588.769531 348.890625 603.132812 C 333.140625 617.988281 312.542969 626.164062 290.90625 626.164062 Z M 268.269531 615.949219 C 275.59375 618.171875 283.1875 619.296875 290.90625 619.296875 C 310.789062 619.296875 329.710938 611.78125 344.191406 598.136719 C 358.195312 584.9375 366.773438 567.105469 368.347656 547.921875 C 369.351562 536.976562 368.089844 526.179688 364.59375 515.808594 C 364.136719 514.460938 364.5625 512.972656 365.65625 512.066406 C 365.664062 512.058594 365.832031 511.921875 365.839844 511.914062 C 365.941406 511.832031 366.046875 511.753906 366.140625 511.664062 L 501.898438 383.722656 C 501.980469 383.644531 502.074219 383.535156 502.171875 383.433594 L 502.359375 383.230469 C 503.328125 382.199219 504.835938 381.867188 506.148438 382.40625 C 516.25 386.5 527.003906 388.425781 537.929688 388.074219 C 557.195312 387.644531 575.5 380.140625 589.507812 366.945312 C 610.03125 347.601562 618.347656 319.339844 611.816406 292.183594 L 558.90625 342.050781 C 558.242188 342.675781 557.34375 342.996094 556.449219 342.984375 C 555.542969 342.957031 554.679688 342.566406 554.054688 341.90625 L 509.25 294.3125 C 508.625 293.648438 508.289062 292.765625 508.316406 291.855469 C 508.34375 290.945312 508.734375 290.085938 509.394531 289.457031 L 564.25 237.753906 C 555.332031 234.320312 545.710938 232.519531 536.136719 232.519531 C 516.261719 232.519531 497.34375 240.03125 482.871094 253.667969 C 481.570312 254.898438 480.261719 256.226562 478.984375 257.617188 C 478.554688 258.085938 478.007812 258.421875 477.410156 258.59375 C 457.65625 280.726562 452.167969 312.453125 463.480469 339.949219 C 464.023438 341.265625 463.695312 342.777344 462.664062 343.753906 L 328.640625 470.066406 C 327.605469 471.039062 326.074219 471.277344 324.792969 470.660156 C 314.351562 465.609375 302.671875 462.9375 291.011719 462.9375 C 273.527344 462.9375 256.476562 468.882812 242.789062 479.714844 C 242.582031 480.296875 242.214844 480.816406 241.726562 481.21875 C 240.207031 482.457031 238.84375 483.652344 237.550781 484.867188 C 215.523438 505.628906 207.652344 536.675781 216.804688 565.199219 L 271.667969 513.496094 C 273.046875 512.191406 275.222656 512.261719 276.519531 513.640625 L 321.320312 561.230469 C 321.945312 561.890625 322.28125 562.777344 322.253906 563.6875 C 322.226562 564.59375 321.839844 565.457031 321.179688 566.082031 Z M 268.269531 615.949219 " fill-opacity="1" fill-rule="nonzero"/><path fill="#d9d9d9" d="M 283.664062 610.964844 C 304.933594 612.011719 326.578125 604.734375 343.304688 588.972656 " fill-opacity="1" fill-rule="nonzero"/><path fill="#ff1616" d="M 287.777344 614.5 C 286.355469 614.5 284.925781 614.464844 283.496094 614.394531 C 281.601562 614.300781 280.140625 612.691406 280.234375 610.796875 C 280.328125 608.90625 281.945312 607.484375 283.832031 607.535156 C 305.125 608.582031 325.421875 601.101562 340.953125 586.472656 C 342.332031 585.167969 344.503906 585.238281 345.804688 586.617188 C 347.101562 588 347.039062 590.171875 345.660156 591.472656 C 329.804688 606.414062 309.386719 614.5 287.777344 614.5 Z M 287.777344 614.5 " fill-opacity="1" fill-rule="nonzero"/><path fill="#d9d9d9" d="M 551.480469 241.457031 C 529.824219 238.351562 507.007812 244.769531 489.84375 260.949219 C 489.167969 261.589844 488.5 262.238281 487.855469 262.898438 " fill-opacity="1" fill-rule="nonzero"/><path fill="#ff1616" d="M 487.855469 266.332031 C 486.992188 266.332031 486.128906 266.007812 485.460938 265.359375 C 484.101562 264.035156 484.074219 261.859375 485.398438 260.5 C 486.074219 259.808594 486.773438 259.128906 487.480469 258.453125 C 504.835938 242.09375 528.34375 234.667969 551.96875 238.054688 C 553.847656 238.328125 555.152344 240.066406 554.878906 241.945312 C 554.609375 243.820312 552.878906 245.121094 550.996094 244.855469 C 529.441406 241.757812 508.011719 248.539062 492.195312 263.445312 C 491.5625 264.046875 490.925781 264.664062 490.3125 265.292969 C 489.640625 265.988281 488.75 266.332031 487.855469 266.332031 Z M 487.855469 266.332031 " fill-opacity="1" fill-rule="nonzero"/></svg>