<svg xmlns="http://www.w3.org/2000/svg" xmlns:xlink="http://www.w3.org/1999/xlink" width="1080" zoomAndPan="magnify" viewBox="0 0 810 809.999993" height="1080" preserveAspectRatio="xMidYMid meet" version="1.0"><defs><clipPath id="7fac53fc3b"><path d="M 234 35.640625 L 560 35.640625 L 560 578.640625 L 234 578.640625 Z M 234 35.640625 " clip-rule="nonzero"/></clipPath><clipPath id="1b33a5997f"><path d="M 355.21875 406 L 630 406 L 630 807.75 L 355.21875 807.75 Z M 355.21875 406 " clip-rule="nonzero"/></clipPath></defs><rect x="-81" width="972" fill="#ffffff" y="-80.999999" height="971.999992" fill-opacity="1"/><rect x="-81" width="972" fill="#ffffff" y="-80.999999" height="971.999992" fill-opacity="1"/><rect x="-81" width="972" fill="#ffffff" y="-80.999999" height="971.999992" fill-opacity="1"/><g clip-path="url(#7fac53fc3b)"><path fill="#e40000" d="M 559.257812 461.605469 C 559.257812 465.023438 559.207031 468.410156 559.15625 471.824219 C 559.128906 472.820312 559.105469 473.8125 559.003906 474.804688 C 558.847656 476.386719 557.957031 477.40625 556.429688 477.8125 C 553.679688 478.5 550.90625 479.0625 548.027344 478.933594 C 539.804688 478.578125 531.578125 479.1875 523.355469 479.214844 C 516.835938 479.238281 510.289062 479.265625 503.773438 479.316406 C 501.785156 479.34375 499.824219 479.445312 497.40625 479.546875 C 497.328125 481.277344 497.226562 482.550781 497.226562 483.800781 C 497.203125 509.640625 497.203125 535.476562 497.226562 561.3125 C 497.226562 563.761719 496.898438 566.105469 496.488281 568.472656 C 496.160156 570.410156 495.265625 571.941406 493.839844 573.1875 C 491.140625 575.582031 487.933594 577.085938 484.597656 578.308594 C 483.324219 578.769531 482.101562 578.386719 480.878906 577.953125 C 475.253906 576.015625 469.601562 574.183594 463.972656 572.21875 C 428.09375 559.734375 393.082031 545.082031 358.351562 529.71875 C 328.53125 516.519531 299.378906 501.96875 270.398438 487.011719 C 264.109375 483.777344 257.796875 480.539062 251.300781 477.175781 C 248.042969 478.476562 244.425781 479.011719 240.710938 478.910156 C 239.871094 478.882812 239.003906 478.859375 238.1875 478.652344 C 236.890625 478.347656 236.023438 477.253906 235.949219 475.875 C 235.871094 474.449219 235.972656 473.046875 235.949219 471.621094 C 234.140625 337.667969 235.363281 203.664062 235.007812 69.632812 C 234.980469 61.835938 235.160156 54.011719 235.3125 46.214844 C 235.3125 44.355469 235.4375 42.519531 235.71875 40.6875 C 236.226562 37.527344 237.015625 36.789062 240.148438 36.636719 C 244.554688 36.40625 248.933594 36.175781 253.339844 36.152344 C 277.886719 36.023438 302.433594 35.921875 326.980469 35.871094 C 400.1875 35.769531 473.394531 35.691406 546.601562 35.640625 C 549.707031 35.640625 552.839844 35.742188 555.945312 35.921875 C 557.753906 36.023438 558.46875 36.890625 558.542969 38.648438 C 558.59375 39.921875 558.492188 41.195312 558.519531 42.46875 C 558.671875 88.617188 558.671875 134.761719 559.003906 180.882812 C 559.613281 274.476562 559.332031 368.042969 559.257812 461.605469 Z M 559.257812 461.605469 " fill-opacity="1" fill-rule="nonzero"/></g><path fill="#eb4e4a" d="M 492.390625 564.882812 C 491.574219 559.53125 491.753906 554.128906 491.753906 548.726562 C 491.753906 533.667969 491.828125 518.632812 491.855469 503.574219 C 492.035156 378.667969 492.210938 253.734375 492.390625 128.824219 C 492.390625 126.125 492.441406 123.421875 492.414062 120.722656 C 492.414062 119.90625 492.210938 119.089844 492.085938 118.300781 C 487.171875 116.695312 482.433594 115.242188 477.773438 113.613281 C 441.15625 100.746094 404.3125 88.617188 366.984375 77.964844 C 341.238281 70.625 315.367188 63.847656 289.292969 57.835938 C 282.824219 56.332031 276.207031 55.414062 269.992188 52.890625 C 269.355469 52.636719 268.59375 52.636719 267.90625 52.613281 C 263.652344 52.484375 259.398438 52.355469 255.148438 52.28125 C 254.613281 52.28125 254.078125 52.433594 253.695312 52.511719 C 253.441406 52.96875 253.210938 53.222656 253.210938 53.476562 C 254 192.859375 253.695312 332.265625 253.824219 471.648438 C 253.824219 472.183594 253.949219 472.742188 254 473.046875 C 260.671875 476.386719 267.167969 479.519531 273.558594 482.832031 C 305.234375 499.320312 337.292969 514.988281 369.988281 529.386719 C 402.273438 543.628906 435.019531 556.675781 467.945312 569.289062 C 473.089844 571.253906 478.230469 573.1875 483.453125 575.175781 C 485.640625 573.671875 487.78125 572.246094 489.84375 570.769531 C 491.855469 569.339844 492.773438 567.40625 492.390625 564.882812 Z M 474.847656 325.820312 C 474.335938 329.054688 473.242188 332.164062 471.40625 334.914062 C 470.464844 336.316406 469.449219 337.742188 468.175781 338.839844 C 463.464844 343.019531 458.191406 344.648438 451.851562 341.667969 C 448.617188 344.140625 445.433594 346.230469 441.640625 347.171875 C 436.445312 348.445312 431.226562 348.546875 426.160156 346.738281 C 419.894531 344.496094 414.90625 339.425781 415.335938 330.738281 C 415.769531 321.765625 419.589844 314.683594 427.28125 309.867188 C 431.53125 307.21875 436.242188 306.453125 441.15625 306.964844 C 442.355469 307.089844 443.527344 307.753906 444.644531 308.339844 C 444.976562 308.515625 445.105469 309.078125 445.410156 309.742188 C 447.523438 310.171875 448.59375 309.433594 449.917969 307.675781 C 449.765625 307.066406 449.636719 306.605469 449.714844 306.171875 C 449.96875 304.695312 451.039062 303.675781 452.207031 302.859375 C 456.128906 300.210938 460.304688 299.675781 464.6875 301.664062 C 467.488281 302.910156 469.625 304.949219 471.332031 307.472656 C 475.101562 313.105469 475.890625 319.296875 474.847656 325.820312 Z M 478.207031 121.105469 C 476.804688 121.003906 475.378906 120.902344 474.03125 120.519531 C 465.324219 118.074219 456.5625 115.726562 447.929688 113 C 420.941406 104.441406 394.050781 95.675781 367.058594 87.085938 C 337.113281 77.558594 306.914062 68.867188 276.613281 60.585938 C 273.609375 59.773438 270.628906 58.878906 267.648438 57.960938 C 266.757812 57.683594 265.945312 57.171875 265.105469 56.765625 C 265.179688 56.460938 265.257812 56.152344 265.332031 55.875 C 265.996094 55.925781 266.65625 55.898438 267.292969 56.050781 C 291.433594 62.21875 315.519531 68.433594 339.378906 75.621094 C 371.769531 85.378906 403.855469 96.007812 436.117188 106.171875 C 448.796875 110.171875 461.554688 113.945312 474.261719 117.894531 C 475.964844 118.429688 477.925781 118.53125 479.175781 120.007812 C 479.25 120.800781 478.792969 121.15625 478.207031 121.105469 Z M 486.074219 564.933594 C 486.050781 565.773438 485.898438 566.640625 485.566406 567.40625 C 485.386719 567.8125 484.75 568.269531 484.292969 568.269531 C 483.859375 568.269531 483.222656 567.835938 483.019531 567.429688 C 482.738281 566.816406 482.664062 566.054688 482.636719 565.367188 C 482.511719 562.664062 482.359375 559.988281 482.359375 557.289062 C 482.410156 520.367188 482.484375 483.46875 482.5625 446.546875 C 482.6875 352.269531 482.816406 258.015625 482.96875 163.734375 C 482.992188 152.957031 483.097656 142.152344 483.199219 131.375 C 483.199219 129.945312 483.300781 128.546875 483.453125 127.117188 C 483.503906 126.632812 483.859375 126.199219 484.265625 125.335938 C 484.726562 126.199219 485.160156 126.632812 485.183594 127.117188 C 485.3125 128.671875 485.335938 130.226562 485.335938 131.808594 C 485.488281 165.746094 485.691406 199.664062 485.742188 233.601562 C 485.921875 341.644531 486.050781 449.683594 486.175781 557.722656 C 486.175781 560.117188 486.152344 562.511719 486.074219 564.933594 Z M 486.074219 564.933594 " fill-opacity="1" fill-rule="nonzero"/><path fill="#000000" d="M 536.289062 50.90625 L 539.929688 51.285156 C 539.675781 52.179688 539.472656 53.097656 539.394531 54.039062 C 539.269531 55.59375 539.320312 57.148438 539.320312 58.726562 C 539.191406 121.054688 539.011719 183.378906 538.9375 245.730469 C 538.859375 321.257812 538.910156 396.808594 538.910156 472.335938 C 538.910156 473.304688 539.011719 474.269531 538.785156 475.238281 C 538.199219 475.367188 537.816406 475.546875 537.410156 475.546875 C 524.21875 475.289062 511.054688 475.011719 497.660156 474.730469 C 497.507812 473.914062 497.304688 473.125 497.253906 472.335938 C 497.175781 471.0625 497.226562 469.785156 497.226562 468.511719 C 497.203125 394.261719 497.253906 319.984375 497.074219 245.730469 C 497 209.804688 496.488281 173.902344 496.160156 137.972656 C 496.109375 132.011719 495.878906 126.046875 495.726562 120.085938 C 495.699219 119.371094 495.648438 118.660156 495.625 117.96875 C 495.546875 116.417969 494.808594 115.269531 493.433594 114.554688 C 492.1875 113.917969 490.886719 113.332031 489.589844 112.773438 C 481.414062 109.179688 472.886719 106.480469 464.480469 103.546875 C 433.570312 92.847656 402.429688 82.859375 370.953125 73.9375 C 345.617188 66.753906 320.15625 60.050781 294.386719 54.574219 C 293.011719 54.292969 291.6875 53.886719 289.523438 53.351562 C 290.847656 53.019531 291.40625 52.789062 291.96875 52.765625 C 293.394531 52.714844 294.792969 52.738281 296.21875 52.738281 C 373.273438 52.816406 450.300781 52.867188 527.351562 52.941406 C 529.769531 52.941406 532.1875 53.121094 534.480469 52.101562 C 534.992188 51.871094 535.5 51.644531 535.984375 51.363281 C 536.136719 51.261719 536.238281 51.109375 536.289062 50.90625 Z M 536.289062 50.90625 " fill-opacity="1" fill-rule="nonzero"/><path fill="#eb4e4a" d="M 554.519531 45.195312 C 554.496094 61.53125 554.445312 77.863281 554.394531 94.171875 C 554.265625 131.375 554.085938 168.574219 554.035156 205.777344 C 553.933594 291.113281 553.882812 376.449219 553.808594 461.785156 C 553.808594 464.765625 553.933594 467.75 553.984375 470.730469 C 554.011719 471.570312 553.984375 472.410156 553.984375 473.355469 C 552.382812 474.195312 550.777344 473.839844 549.300781 474.066406 C 547.773438 474.296875 546.246094 474.449219 544.488281 474.679688 C 544.335938 473.710938 544.105469 472.894531 544.105469 472.105469 C 544.054688 469.40625 544.105469 466.703125 544.105469 464.003906 C 544.003906 351.273438 543.929688 238.519531 543.773438 125.792969 C 543.75 102.375 543.546875 78.933594 543.417969 55.515625 C 543.417969 54.523438 543.417969 53.527344 543.34375 52.535156 C 543.292969 51.976562 543.265625 51.3125 542.960938 50.90625 C 542.578125 50.394531 541.941406 49.910156 541.355469 49.808594 C 541 49.734375 540.285156 50.320312 540.132812 50.75 C 540.082031 50.929688 540.007812 51.132812 539.957031 51.3125 L 536.3125 50.929688 C 536.492188 50.421875 536.390625 49.65625 535.984375 49.503906 C 534.40625 48.917969 532.800781 48.355469 531.171875 48 C 530.074219 47.769531 528.90625 47.921875 527.785156 47.921875 C 441.921875 48.023438 356.085938 48.101562 270.222656 48.230469 C 264.261719 48.230469 258.304688 48.484375 252.347656 48.6875 C 250.183594 48.738281 249.648438 49.324219 249.519531 51.515625 C 249.46875 52.636719 249.496094 53.785156 249.496094 54.90625 C 249.417969 75.925781 249.265625 96.921875 249.238281 117.945312 C 249.0625 234.648438 248.933594 351.375 248.78125 468.078125 C 248.78125 469.761719 248.78125 471.441406 248.78125 473.253906 C 245.851562 474.144531 243 473.839844 240.53125 474.550781 C 239.234375 473.683594 239.5625 472.613281 239.589844 471.671875 C 239.714844 465.429688 240.023438 459.1875 240.046875 452.945312 C 240.25 425.398438 240.402344 397.855469 240.507812 370.308594 C 240.582031 351.988281 240.558594 333.667969 240.582031 315.371094 C 240.660156 235.003906 240.761719 154.636719 240.785156 74.269531 C 240.785156 64.332031 240.402344 54.394531 240.199219 44.457031 C 240.148438 43.105469 240.226562 41.707031 240.277344 40.074219 C 345.210938 40.175781 449.613281 40.277344 554.085938 40.382812 C 554.777344 42.113281 554.519531 43.695312 554.519531 45.195312 Z M 554.519531 45.195312 " fill-opacity="1" fill-rule="nonzero"/><path fill="#f4c69f" d="M 442.839844 310.300781 C 440.546875 310.148438 438.332031 310.351562 436.089844 310.863281 C 428.144531 312.695312 423.230469 317.640625 420.890625 325.308594 C 420.507812 326.53125 420.304688 327.804688 420.097656 329.054688 C 419.15625 335.449219 422.390625 340.699219 428.628906 342.382812 C 434.003906 343.859375 439.324219 343.425781 444.316406 340.75 C 451.265625 337.054688 454.679688 328.722656 452.386719 321.15625 C 451.519531 318.277344 450.144531 315.652344 448.644531 313.078125 C 448.414062 312.671875 448.390625 311.90625 448.617188 311.550781 C 448.871094 311.167969 449.5625 310.964844 450.09375 310.9375 C 450.628906 310.914062 451.242188 311.066406 451.726562 311.347656 C 452.769531 311.957031 453.789062 312.035156 454.957031 311.726562 C 457.886719 310.988281 460.253906 312.136719 462.140625 314.25 C 465.652344 318.148438 466.519531 324.722656 464.203125 329.410156 C 462.828125 332.214844 460.789062 334.304688 457.582031 334.839844 C 456.027344 335.09375 455.417969 335.960938 455.238281 337.640625 C 455.671875 337.796875 456.15625 338.050781 456.640625 338.074219 C 460.96875 338.226562 464.40625 336.46875 466.75 332.902344 C 471.101562 326.226562 471.585938 319.144531 468.402344 311.828125 C 467.894531 310.683594 467.128906 309.613281 466.316406 308.644531 C 463.054688 304.796875 458.574219 303.90625 454.066406 306.148438 C 452.820312 306.757812 451.648438 307.523438 450.121094 308.390625 C 450.070312 308.109375 450.019531 307.855469 449.96875 307.625 C 448.644531 309.382812 447.574219 310.121094 445.460938 309.691406 C 445.511719 309.765625 445.539062 309.867188 445.589844 309.945312 C 444.417969 310.148438 443.628906 310.351562 442.839844 310.300781 Z M 432.371094 333.105469 C 432.195312 333.898438 431.8125 334.710938 431.328125 335.375 C 430.84375 336.0625 430.054688 336.546875 429.140625 336.292969 C 428.273438 336.0625 427.660156 335.449219 427.558594 334.535156 C 427.355469 332.851562 427.152344 331.171875 427 329.488281 C 426.949219 328.800781 426.949219 328.0625 427.078125 327.398438 C 427.179688 326.863281 427.457031 326.328125 427.789062 325.894531 C 428.425781 325.003906 429.394531 324.722656 430.410156 324.925781 C 431.457031 325.132812 432.269531 325.769531 432.449219 326.8125 C 432.652344 327.910156 432.601562 329.054688 432.679688 330.050781 C 432.578125 331.144531 432.601562 332.164062 432.371094 333.105469 Z M 442.914062 335.398438 C 442.378906 336.953125 441.488281 338.152344 440.089844 338.941406 C 439.65625 339.171875 438.941406 339.222656 438.507812 339.042969 C 437.746094 338.710938 437.71875 337.921875 437.976562 337.234375 C 438.382812 336.191406 438.917969 335.195312 439.324219 334.125 C 441.03125 329.589844 439.910156 325.539062 437.03125 321.871094 C 435.757812 320.265625 434.128906 319.21875 431.941406 319.398438 C 431.40625 319.449219 430.84375 319.296875 430.003906 319.195312 C 430.207031 318.53125 430.234375 317.894531 430.566406 317.640625 C 431.710938 316.695312 433.035156 316.261719 434.484375 316.851562 C 435.402344 317.207031 436.34375 317.5625 437.160156 318.097656 C 442.175781 321.4375 444.875 329.667969 442.914062 335.398438 Z M 455.976562 315.652344 C 458.523438 316.136719 460 317.640625 460.585938 320.367188 C 460.992188 322.300781 460.96875 324.265625 460.40625 326.203125 C 460.179688 327.015625 459.746094 327.578125 458.292969 328.75 C 458.140625 326.457031 458.167969 324.214844 457.785156 322.046875 C 457.402344 319.882812 456.613281 317.816406 455.976562 315.652344 Z M 455.976562 315.652344 " fill-opacity="1" fill-rule="nonzero"/><path fill="#f4c69f" d="M 524.765625 805.730469 C 521.285156 805.730469 519.382812 804.542969 517.972656 801.492188 C 514.714844 794.445312 511.179688 787.398438 507.761719 780.582031 L 505.046875 775.160156 C 498.960938 762.957031 490.890625 752.625 480.371094 743.574219 C 470.253906 734.867188 459.792969 725.863281 450.753906 715.671875 C 446.859375 711.285156 443.675781 706.347656 441.296875 701 C 436.699219 690.675781 432.207031 680.085938 427.863281 669.847656 L 427.671875 669.390625 C 423.429688 659.394531 417.644531 650.179688 410.476562 641.992188 C 397.695312 627.402344 386.738281 611.214844 376.980469 592.503906 C 374.898438 588.515625 372.5625 584.609375 370.300781 580.832031 C 368.710938 578.171875 367.0625 575.421875 365.535156 572.6875 C 363.992188 569.929688 362.527344 567.046875 361.109375 564.257812 C 360.085938 562.238281 359.058594 560.21875 357.992188 558.21875 C 357.445312 557.191406 357.445312 556.480469 358.90625 554.984375 C 363.257812 550.511719 368.792969 548.339844 375.828125 548.339844 C 382.324219 548.359375 387.550781 550.613281 391.457031 555.042969 C 394.796875 558.832031 398.1875 563.066406 402.136719 568.367188 C 403.785156 570.574219 405.375 572.90625 406.910156 575.160156 C 408.722656 577.8125 410.597656 580.5625 412.601562 583.171875 C 415.070312 586.378906 417.644531 588.941406 420.253906 590.785156 C 423 592.730469 425.984375 593.714844 429.121094 593.714844 C 431.398438 593.714844 433.75 593.1875 436.105469 592.144531 L 437.300781 591.617188 L 437.1875 590.316406 C 437.007812 588.269531 436.816406 586.234375 436.628906 584.207031 C 436.222656 579.867188 435.800781 575.382812 435.53125 570.992188 C 435.230469 566.0625 434.992188 561.121094 434.757812 556.183594 C 434.425781 549.328125 434.085938 542.238281 433.566406 535.265625 C 432.832031 525.402344 431.867188 515.398438 430.9375 505.722656 C 430.589844 502.132812 430.242188 498.539062 429.90625 494.949219 C 429.703125 492.75 429.515625 490.546875 429.328125 488.34375 C 428.839844 482.613281 428.332031 476.691406 427.511719 470.886719 C 425.96875 459.960938 425.566406 448.179688 426.242188 433.816406 C 426.644531 425.28125 428.691406 419.125 432.679688 414.445312 C 436.335938 410.15625 440.3125 408.070312 444.84375 408.070312 C 445.992188 408.070312 447.199219 408.203125 448.433594 408.46875 C 451.609375 409.152344 453.386719 410.640625 454.1875 413.285156 C 455.019531 416.027344 455.800781 418.785156 456.578125 421.539062 C 457.316406 424.164062 458.058594 426.789062 458.847656 429.402344 C 459.347656 431.070312 459.945312 432.789062 461.25 433.929688 C 467.4375 439.359375 473.8125 444.773438 479.976562 450.007812 L 483.515625 453.015625 C 483.96875 453.398438 484.441406 453.667969 484.992188 453.972656 C 485.253906 454.121094 485.558594 454.292969 485.910156 454.507812 L 488.675781 456.175781 L 488.675781 448.289062 C 488.664062 442.632812 490.820312 437.839844 495.074219 434.039062 C 496.617188 432.664062 497.613281 432.101562 498.515625 432.101562 C 499.308594 432.101562 500.300781 432.492188 501.734375 433.371094 C 504.488281 435.054688 507.363281 436.890625 509.566406 439.210938 C 519.695312 449.886719 529.835938 460.902344 539.636719 471.554688 L 542.105469 474.242188 C 543.003906 475.214844 543.808594 476.28125 544.664062 477.414062 C 545.390625 478.378906 546.117188 479.34375 546.90625 480.253906 C 551.878906 486.019531 554.320312 493.117188 554.585938 502.601562 C 554.894531 513.703125 555.328125 524.980469 555.746094 535.886719 L 556.214844 548.28125 C 556.230469 548.675781 556.292969 549.070312 556.386719 549.617188 C 556.425781 549.859375 556.476562 550.140625 556.527344 550.484375 L 556.945312 553.289062 L 559.324219 551.742188 C 561.683594 550.207031 561.914062 548.078125 562.050781 546.804688 L 562.078125 546.554688 C 563.613281 533.292969 566.453125 520.015625 569.199219 507.171875 C 570.542969 500.890625 571.933594 494.394531 573.15625 487.964844 C 574.125 482.878906 574.367188 477.632812 574.605469 472.558594 C 574.738281 469.671875 574.878906 466.683594 575.148438 463.785156 C 575.523438 459.820312 576.015625 455.226562 577.140625 450.9375 C 578.792969 444.644531 582.761719 440.085938 588.929688 437.386719 C 589.738281 437.03125 590.476562 436.859375 591.179688 436.859375 C 592.113281 436.859375 593.070312 437.15625 594.1875 437.796875 C 599.367188 440.761719 601.863281 444.953125 601.828125 450.609375 C 601.761719 460.53125 601.652344 472.050781 601.171875 483.265625 C 600.886719 489.851562 600.359375 496.550781 599.851562 503.035156 C 599.605469 506.164062 599.359375 509.292969 599.140625 512.425781 C 598.890625 515.972656 598.675781 519.523438 598.460938 523.074219 C 597.992188 530.832031 597.507812 538.851562 596.636719 546.675781 C 596.066406 551.789062 595.046875 556.976562 594.054688 561.992188 C 593.410156 565.261719 592.746094 568.644531 592.203125 572 C 591.800781 574.5 591.59375 577.035156 591.398438 579.488281 C 591.242188 581.402344 591.082031 583.378906 590.832031 585.289062 C 590.207031 590.007812 589.53125 594.71875 588.855469 599.429688 C 588.1875 604.089844 587.519531 608.746094 586.902344 613.414062 C 585.242188 625.9375 585.152344 639.242188 586.632812 652.953125 C 587.722656 663.035156 589.066406 673.742188 592.414062 684.117188 C 594.59375 690.871094 596.539062 695.886719 598.722656 700.386719 C 606.277344 715.960938 615.113281 731.433594 625.734375 747.691406 C 628.363281 751.71875 628.398438 754.964844 625.867188 759.277344 C 621.058594 767.457031 614.378906 774.457031 605.445312 780.675781 C 589.324219 791.894531 570.367188 799.511719 547.488281 803.96875 C 539.953125 805.4375 532.050781 805.589844 525.074219 805.726562 Z M 464.667969 486.304688 C 464.089844 487.390625 464.050781 488.28125 464.09375 489.007812 L 464.550781 496.992188 C 464.929688 503.660156 465.304688 510.328125 465.75 516.988281 C 466.660156 530.691406 468.289062 542.777344 470.722656 553.941406 C 471.484375 557.445312 472.351562 561.417969 475.179688 565.582031 L 477.609375 569.15625 L 478.472656 564.921875 C 478.613281 564.242188 478.753906 563.644531 478.882812 563.101562 C 479.148438 561.972656 479.378906 561 479.441406 559.957031 C 479.515625 558.667969 479.601562 557.378906 479.6875 556.085938 C 479.964844 551.960938 480.253906 547.695312 480.152344 543.46875 C 479.996094 537.011719 479.71875 530.453125 479.449219 524.117188 C 479.183594 517.769531 478.90625 511.207031 478.75 504.757812 C 478.5625 496.890625 473.859375 492.1875 469.3125 487.636719 C 468.734375 487.054688 468.152344 486.476562 467.582031 485.886719 L 465.839844 484.097656 Z M 464.667969 486.304688 " fill-opacity="1" fill-rule="nonzero"/><path fill="#8345ff" d="M 436.125 421.621094 C 436.125 421.226562 436.140625 420.511719 436.125 419.792969 C 436.074219 417.6875 435.640625 415.621094 437.679688 413.902344 C 440.066406 411.886719 442.621094 410.402344 445.738281 410.371094 C 448.222656 410.34375 449.96875 411.867188 451.242188 413.941406 C 452.953125 416.722656 453.269531 419.804688 453.511719 422.976562 C 453.914062 428.246094 452.917969 433.273438 450.984375 438.074219 C 449.121094 442.695312 445.273438 443.128906 441.535156 439.871094 C 437.683594 436.515625 437.074219 432.0625 436.484375 427.515625 C 436.242188 425.675781 436.25 423.800781 436.125 421.621094 Z M 584.800781 455.882812 C 584.804688 456.3125 584.800781 456.75 584.871094 457.171875 C 585.304688 459.710938 587.722656 462.054688 590.027344 462.199219 C 592.488281 462.351562 595.09375 460.585938 595.699219 457.898438 C 596.480469 454.421875 597.105469 450.886719 597.433594 447.34375 C 597.757812 443.875 594.191406 440.4375 590.746094 440.496094 C 587.570312 440.546875 584.894531 443.402344 584.808594 446.863281 C 584.773438 448.152344 584.800781 449.441406 584.800781 450.726562 C 584.796875 452.445312 584.792969 454.164062 584.800781 455.882812 Z M 375.457031 583.382812 C 378.828125 580.921875 379.226562 580.195312 378.128906 576.269531 C 375.789062 567.902344 371.285156 560.566406 366.878906 552.664062 C 364.613281 554.179688 362.660156 555.488281 359.976562 557.285156 C 365.398438 566.425781 370.414062 574.882812 375.457031 583.382812 Z M 500.441406 450.765625 C 503.230469 452.976562 507.691406 452.511719 510.289062 450.074219 C 511.664062 448.78125 512.125 446.394531 510.824219 445.058594 C 508.136719 442.292969 505.367188 439.542969 502.3125 437.210938 C 499.816406 435.300781 497.050781 435.960938 495.191406 438.472656 C 494.109375 439.929688 493.332031 441.617188 492.265625 443.464844 C 495.117188 446.035156 497.652344 448.558594 500.441406 450.765625 Z M 462.976562 440.292969 C 463.398438 442.835938 463.820312 445.378906 464.273438 448.09375 C 467 447.597656 467.679688 445.980469 467.804688 443.714844 C 466.386719 442.417969 464.992188 441.136719 463.597656 439.859375 C 463.390625 440.003906 463.183594 440.148438 462.976562 440.292969 Z M 462.976562 440.292969 " fill-opacity="1" fill-rule="nonzero"/><g clip-path="url(#1b33a5997f)"><path fill="#e40000" d="M 435.371094 590.476562 C 434.800781 583.945312 434.109375 577.535156 433.714844 571.105469 C 432.984375 559.207031 432.636719 547.285156 431.75 535.398438 C 430.75 521.957031 429.347656 508.542969 428.09375 495.117188 C 427.347656 487.121094 426.832031 479.085938 425.707031 471.140625 C 423.949219 458.695312 423.832031 446.207031 424.421875 433.730469 C 424.769531 426.402344 426.285156 419.136719 431.292969 413.261719 C 435.886719 407.867188 441.488281 405.113281 448.8125 406.6875 C 452.40625 407.460938 454.878906 409.28125 455.933594 412.757812 C 457.558594 418.109375 458.976562 423.519531 460.589844 428.875 C 460.984375 430.1875 461.488281 431.714844 462.449219 432.558594 C 469.792969 439 477.253906 445.300781 484.695312 451.625 C 485.191406 452.046875 485.8125 452.316406 486.855469 452.945312 C 486.855469 451.042969 486.855469 449.667969 486.855469 448.292969 C 486.84375 442.035156 489.21875 436.824219 493.859375 432.679688 C 497.089844 429.796875 498.917969 429.507812 502.6875 431.8125 C 505.59375 433.59375 508.566406 435.511719 510.890625 437.957031 C 521.867188 449.523438 532.648438 461.273438 543.449219 473.003906 C 545.191406 474.902344 546.597656 477.109375 548.285156 479.0625 C 554.117188 485.824219 556.160156 493.816406 556.40625 502.550781 C 556.832031 517.773438 557.476562 532.992188 558.039062 548.214844 C 558.058594 548.71875 558.183594 549.222656 558.328125 550.214844 C 560.089844 549.066406 560.125 547.558594 560.265625 546.34375 C 562.566406 526.5 567.644531 507.191406 571.367188 487.625 C 572.859375 479.78125 572.582031 471.613281 573.335938 463.613281 C 573.75 459.207031 574.257812 454.742188 575.378906 450.476562 C 577.191406 443.574219 581.582031 438.613281 588.199219 435.714844 C 590.613281 434.660156 592.691406 434.839844 595.09375 436.214844 C 600.761719 439.464844 603.691406 444.214844 603.648438 450.625 C 603.578125 461.53125 603.460938 472.445312 602.992188 483.34375 C 602.574219 493.089844 601.644531 502.816406 600.957031 512.554688 C 600.152344 524 599.714844 535.484375 598.449219 546.878906 C 597.5 555.40625 595.375 563.800781 594.003906 572.289062 C 593.296875 576.664062 593.21875 581.132812 592.636719 585.53125 C 591.398438 594.914062 589.949219 604.269531 588.707031 613.652344 C 586.984375 626.671875 587.035156 639.71875 588.445312 652.757812 C 589.570312 663.164062 590.921875 673.558594 594.148438 683.558594 C 595.90625 689.007812 597.867188 694.449219 600.359375 699.589844 C 608.269531 715.886719 617.363281 731.542969 627.257812 746.695312 C 630.441406 751.566406 630.128906 755.621094 627.4375 760.199219 C 622.167969 769.171875 614.964844 776.269531 606.484375 782.171875 C 588.738281 794.523438 568.902344 801.652344 547.835938 805.757812 C 540.324219 807.222656 532.730469 807.402344 525.113281 807.550781 C 520.945312 807.632812 518.167969 806.261719 516.316406 802.253906 C 512.226562 793.398438 507.773438 784.707031 503.417969 775.972656 C 497.441406 763.992188 489.382812 753.734375 479.183594 744.957031 C 468.847656 736.058594 458.488281 727.144531 449.390625 716.882812 C 445.324219 712.300781 442.089844 707.261719 439.632812 701.742188 C 434.960938 691.25 430.476562 680.675781 425.992188 670.101562 C 421.800781 660.222656 416.160156 651.25 409.105469 643.195312 C 395.777344 627.980469 384.710938 611.269531 375.363281 593.347656 C 371.847656 586.605469 367.65625 580.21875 363.945312 573.578125 C 361.285156 568.820312 358.949219 563.886719 356.382812 559.074219 C 355.199219 556.851562 356.085938 555.265625 357.601562 553.710938 C 362.628906 548.546875 368.9375 546.5 375.925781 546.515625 C 382.53125 546.535156 388.402344 548.820312 392.824219 553.839844 C 396.617188 558.140625 400.171875 562.675781 403.601562 567.277344 C 407.203125 572.113281 410.371094 577.277344 414.046875 582.058594 C 416.117188 584.753906 418.546875 587.347656 421.304688 589.296875 C 425.527344 592.28125 430.308594 592.710938 435.371094 590.476562 Z M 491.691406 450.125 C 492.140625 451.742188 492.570312 453.363281 493.035156 454.972656 C 494.800781 461.039062 499.003906 465.421875 503.476562 469.484375 C 511.027344 476.339844 514.648438 485.113281 515.582031 494.910156 C 516.777344 507.480469 517.535156 520.101562 518.054688 532.71875 C 518.597656 545.929688 518.632812 559.164062 518.882812 572.386719 C 518.898438 573.246094 518.945312 574.128906 518.78125 574.964844 C 518.519531 576.320312 517.835938 577.492188 516.257812 577.417969 C 514.777344 577.351562 513.925781 576.421875 513.855469 574.902344 C 513.808594 573.894531 513.820312 572.890625 513.8125 571.882812 C 513.726562 561.828125 513.785156 551.765625 513.515625 541.714844 C 513.300781 533.53125 512.757812 525.355469 512.246094 517.183594 C 511.761719 509.453125 511.585938 501.660156 510.433594 494.023438 C 509.292969 486.488281 506.839844 479.253906 500.863281 473.839844 C 498.632812 471.816406 496.535156 469.636719 494.332031 467.582031 C 487.003906 460.746094 479.65625 453.9375 472.574219 447.355469 C 469.753906 449.539062 467.449219 451.320312 465.207031 453.054688 C 465.207031 457.972656 465.128906 463.128906 465.230469 468.28125 C 465.300781 471.714844 464.765625 475.519531 466.0625 478.472656 C 467.429688 481.589844 470.652344 483.894531 473.058594 486.558594 C 478.359375 492.429688 482.199219 498.722656 482.125 507.195312 C 482.03125 518.109375 483.28125 529.035156 483.085938 539.941406 C 482.902344 549.875 484.460938 560.074219 480.054688 569.710938 C 481.308594 570.640625 482.605469 571.34375 483.535156 572.382812 C 484.09375 573.003906 484.5625 574.515625 484.210938 574.964844 C 483.648438 575.695312 482.039062 576.503906 481.472656 576.191406 C 479.261719 574.964844 476.976562 573.597656 475.296875 571.753906 C 472.164062 568.324219 470.078125 564.152344 468.972656 559.636719 C 467.679688 554.339844 466.554688 548.996094 465.609375 543.628906 C 462.863281 528.015625 462.234375 512.195312 461.402344 496.410156 C 460.648438 482.195312 460.230469 467.964844 459.59375 453.746094 C 459.347656 448.1875 458.601562 442.695312 457.019531 436.585938 C 456.222656 438.304688 455.792969 439.339844 455.277344 440.328125 C 451.460938 447.609375 444.25 448.796875 438.105469 443.3125 C 434.09375 439.730469 432.40625 435.179688 431.855469 430.015625 C 431.734375 428.894531 432.226562 427.457031 430.386719 426.703125 C 429.996094 429.296875 429.4375 431.6875 429.308594 434.101562 C 428.339844 452.539062 430.566406 470.800781 432.414062 489.085938 C 433.699219 501.785156 435.15625 514.476562 436.105469 527.199219 C 437.246094 542.523438 437.824219 557.886719 438.851562 573.214844 C 439.46875 582.371094 440.3125 591.523438 441.378906 600.640625 C 442.203125 607.6875 441.828125 614.679688 441.375 621.699219 C 441.257812 623.488281 440.914062 625.257812 438.632812 625.402344 C 437.023438 625.503906 436.335938 624.234375 436.398438 621.558594 C 436.417969 620.695312 436.5 619.835938 436.539062 618.976562 C 436.703125 615.101562 437.085938 611.222656 436.953125 607.359375 C 436.820312 603.589844 436.15625 599.835938 435.722656 596.042969 C 425.363281 598.433594 417.757812 594.847656 411.679688 587.285156 C 410.421875 585.71875 409.296875 584.046875 408.117188 582.417969 C 402.988281 575.3125 397.972656 568.117188 392.675781 561.140625 C 390.789062 558.660156 388.398438 556.460938 385.910156 554.566406 C 382.003906 551.59375 377.433594 550.835938 372.167969 551.53125 C 374.484375 556.050781 376.84375 560.136719 378.703125 564.4375 C 380.515625 568.625 382.015625 572.976562 383.285156 577.363281 C 384.332031 580.988281 383.148438 584.160156 380.058594 586.5 C 379.492188 586.929688 378.96875 587.410156 378.328125 587.945312 C 378.789062 588.914062 379.1875 589.824219 379.636719 590.707031 C 388.925781 608.820312 400.191406 625.582031 413.621094 640.902344 C 420.582031 648.839844 426.113281 657.738281 430.253906 667.46875 C 434.300781 676.980469 438.324219 686.503906 442.3125 696.039062 C 446.257812 705.46875 452.019531 713.65625 459.476562 720.578125 C 466.953125 727.515625 474.515625 734.378906 482.296875 740.976562 C 493.097656 750.136719 501.625 760.992188 507.890625 773.660156 C 512.59375 783.167969 517.265625 792.691406 521.960938 802.226562 C 530.882812 802.511719 539.601562 802.355469 548.261719 800.578125 C 567.128906 796.707031 585 790.355469 601.175781 779.714844 C 609.910156 773.96875 617.546875 767.105469 622.910156 757.953125 C 624.644531 754.996094 624.933594 752.636719 622.933594 749.335938 C 614.75 735.832031 606.9375 722.101562 599.144531 708.371094 C 593.949219 699.21875 589.796875 689.566406 587.75 679.21875 C 586.027344 670.511719 584.792969 661.695312 583.601562 652.894531 C 581.570312 637.847656 582.242188 622.820312 584.347656 607.824219 C 585.402344 600.300781 586.410156 592.769531 587.390625 585.238281 C 587.886719 581.414062 588.105469 577.550781 588.734375 573.75 C 589.839844 567.101562 591.148438 560.488281 592.394531 553.859375 C 594.46875 542.832031 595.105469 531.683594 595.628906 520.488281 C 596.273438 506.730469 597.550781 493 598.476562 479.25 C 598.851562 473.753906 599.027344 468.246094 599.339844 461.808594 C 594.855469 465.890625 590.851562 467.632812 585.808594 465.066406 C 580.851562 462.546875 580.789062 457.8125 579.734375 453.277344 C 578.835938 458.003906 578.101562 462.679688 577.996094 467.363281 C 577.800781 476.285156 577.101562 485.089844 575.222656 493.855469 C 571.59375 510.816406 567.445312 527.679688 565.4375 544.960938 C 564.964844 549.046875 564.015625 553.234375 562.382812 556.980469 C 560.753906 560.722656 557.761719 563.828125 557.5 568.253906 C 557.460938 568.9375 555.859375 570.066406 555.050781 570.011719 C 554.289062 569.957031 553.519531 568.675781 552.949219 567.804688 C 552.683594 567.398438 552.882812 566.683594 552.871094 566.109375 C 552.585938 550.449219 552.34375 534.785156 551.984375 519.125 C 551.835938 512.519531 551.609375 505.90625 551.105469 499.324219 C 550.617188 492.921875 548.753906 486.980469 544.324219 482.023438 C 536.382812 473.144531 528.566406 464.15625 520.667969 455.238281 C 519.097656 453.46875 517.390625 451.824219 515.699219 450.074219 C 512.695312 454.386719 508.9375 456.277344 504.132812 456.359375 C 498.9375 456.449219 496.253906 452.164062 491.691406 450.125 Z M 476.6875 564.558594 C 477.105469 562.515625 477.542969 561.195312 477.621094 559.855469 C 477.9375 554.410156 478.460938 548.953125 478.332031 543.511719 C 478.019531 530.605469 477.238281 517.707031 476.929688 504.800781 C 476.734375 496.71875 471.203125 492.226562 466.277344 487.160156 C 465.910156 487.847656 465.882812 488.375 465.914062 488.902344 C 466.457031 498.226562 466.949219 507.550781 467.570312 516.867188 C 468.390625 529.203125 469.867188 541.460938 472.503906 553.554688 C 473.285156 557.152344 474.109375 560.757812 476.6875 564.558594 Z M 436.125 421.621094 C 436.25 423.800781 436.242188 425.675781 436.484375 427.515625 C 437.074219 432.058594 437.683594 436.515625 441.535156 439.871094 C 445.273438 443.128906 449.121094 442.695312 450.984375 438.074219 C 452.917969 433.273438 453.914062 428.246094 453.511719 422.976562 C 453.269531 419.804688 452.953125 416.722656 451.242188 413.941406 C 449.96875 411.867188 448.222656 410.34375 445.738281 410.371094 C 442.621094 410.402344 440.066406 411.886719 437.679688 413.902344 C 435.640625 415.621094 436.074219 417.6875 436.125 419.792969 C 436.140625 420.511719 436.125 421.226562 436.125 421.621094 Z M 584.796875 450.726562 C 584.796875 452.445312 584.792969 454.164062 584.800781 455.882812 C 584.804688 456.3125 584.800781 456.75 584.871094 457.171875 C 585.304688 459.710938 587.722656 462.054688 590.027344 462.199219 C 592.488281 462.351562 595.09375 460.585938 595.699219 457.898438 C 596.480469 454.421875 597.105469 450.886719 597.433594 447.34375 C 597.757812 443.875 594.191406 440.4375 590.746094 440.496094 C 587.570312 440.546875 584.894531 443.402344 584.808594 446.863281 C 584.773438 448.152344 584.800781 449.441406 584.796875 450.726562 Z M 359.976562 557.285156 C 365.398438 566.425781 370.414062 574.882812 375.457031 583.382812 C 378.828125 580.921875 379.226562 580.195312 378.128906 576.269531 C 375.789062 567.902344 371.285156 560.566406 366.878906 552.664062 C 364.613281 554.179688 362.660156 555.488281 359.976562 557.285156 Z M 492.265625 443.464844 C 495.117188 446.035156 497.652344 448.558594 500.441406 450.765625 C 503.230469 452.976562 507.691406 452.511719 510.289062 450.074219 C 511.664062 448.78125 512.125 446.394531 510.824219 445.058594 C 508.136719 442.292969 505.367188 439.542969 502.3125 437.210938 C 499.816406 435.300781 497.050781 435.960938 495.191406 438.472656 C 494.109375 439.929688 493.332031 441.617188 492.265625 443.464844 Z M 463.597656 439.859375 C 463.390625 440.003906 463.183594 440.148438 462.976562 440.292969 C 463.398438 442.835938 463.820312 445.378906 464.273438 448.09375 C 467 447.597656 467.679688 445.980469 467.804688 443.714844 C 466.386719 442.417969 464.992188 441.136719 463.597656 439.859375 Z M 463.597656 439.859375 " fill-opacity="1" fill-rule="nonzero"/></g></svg>