<svg xmlns="http://www.w3.org/2000/svg" xmlns:xlink="http://www.w3.org/1999/xlink" width="1080" zoomAndPan="magnify" viewBox="0 0 810 809.999993" height="1080" preserveAspectRatio="xMidYMid meet" version="1.0"><defs><clipPath id="b5e0c5197d"><path d="M 180 421 L 677 421 L 677 718.484375 L 180 718.484375 Z M 180 421 " clip-rule="nonzero"/></clipPath></defs><rect x="-81" width="972" fill="#ffffff" y="-80.999999" height="971.999992" fill-opacity="1"/><rect x="-81" width="972" fill="#ffffff" y="-80.999999" height="971.999992" fill-opacity="1"/><rect x="-81" width="972" fill="#ffffff" y="-80.999999" height="971.999992" fill-opacity="1"/><path fill="#000000" d="M 286.238281 425.300781 Z M 286.625 420.65625 C 286.625 420.785156 286.625 420.914062 286.625 421.042969 C 286.625 420.914062 286.625 420.785156 286.625 420.65625 Z M 602.605469 475.347656 C 602.734375 475.605469 602.992188 475.734375 603.25 475.863281 C 602.992188 475.734375 602.734375 475.476562 602.605469 475.347656 Z M 602.605469 475.347656 C 602.734375 475.605469 602.992188 475.734375 603.25 475.863281 C 602.992188 475.734375 602.734375 475.476562 602.605469 475.347656 Z M 286.625 420.65625 C 286.625 420.785156 286.625 420.914062 286.625 421.042969 C 286.625 420.914062 286.625 420.785156 286.625 420.65625 Z M 286.238281 425.300781 Z M 286.238281 425.300781 Z M 286.625 420.65625 C 286.625 420.785156 286.625 420.914062 286.625 421.042969 C 286.625 420.914062 286.625 420.785156 286.625 420.65625 Z M 286.238281 425.300781 Z M 184.738281 175.96875 C 184.738281 176.097656 184.609375 176.226562 184.609375 176.226562 C 200.859375 155.074219 218.140625 142.304688 223.042969 138.820312 C 208.082031 148.753906 195.054688 161.394531 184.738281 175.96875 Z M 286.625 420.65625 C 286.625 420.785156 286.625 420.914062 286.625 421.042969 C 286.625 420.914062 286.625 420.785156 286.625 420.65625 Z M 286.238281 425.300781 Z M 602.605469 475.347656 C 602.734375 475.605469 602.992188 475.734375 603.25 475.863281 C 602.992188 475.734375 602.734375 475.476562 602.605469 475.347656 Z M 602.605469 475.347656 C 602.734375 475.605469 602.992188 475.734375 603.25 475.863281 C 602.992188 475.734375 602.734375 475.476562 602.605469 475.347656 Z M 676.503906 524.746094 C 675.472656 517.78125 672.25 510.945312 666.316406 506.949219 C 666.058594 506.820312 665.800781 506.691406 665.542969 506.5625 C 665.542969 506.5625 665.542969 506.433594 665.542969 506.433594 C 666.058594 497.402344 663.609375 488.503906 656.386719 482.699219 C 650.324219 477.925781 642.070312 475.992188 635.234375 480.246094 C 634.847656 480.503906 634.71875 480.632812 634.460938 480.890625 C 633.300781 479.085938 631.882812 477.410156 630.332031 475.863281 C 625.5625 470.960938 618.855469 467.863281 612.019531 468.382812 C 611.890625 468.25 611.761719 468.25 611.761719 468.121094 C 611.503906 467.992188 611.117188 467.863281 610.859375 467.734375 C 610.472656 467.476562 610.085938 467.476562 609.570312 467.476562 C 609.3125 467.476562 609.183594 467.605469 608.925781 467.605469 C 608.539062 467.734375 608.152344 467.992188 607.761719 468.382812 C 607.761719 468.382812 607.761719 468.382812 607.632812 468.511719 C 607.246094 468.769531 606.988281 469.027344 606.730469 469.414062 C 606.472656 469.414062 606.34375 469.542969 606.085938 469.542969 C 605.699219 469.671875 605.3125 469.800781 605.054688 470.058594 C 605.054688 470.058594 605.054688 470.058594 604.925781 470.058594 C 604.539062 469.929688 604.152344 469.800781 603.765625 469.800781 C 596.542969 463.996094 586.355469 461.027344 577.585938 465.027344 C 570.234375 468.382812 565.460938 475.734375 564.816406 483.601562 C 556.433594 475.734375 547.535156 468.25 536.570312 464.511719 C 525.996094 460.898438 513.484375 460.898438 504.070312 467.605469 C 501.75 469.285156 499.558594 471.347656 498.394531 474.054688 C 497.234375 476.894531 497.234375 479.988281 497.878906 482.957031 C 498.523438 486.179688 499.816406 489.148438 500.847656 492.242188 L 506.90625 509.011719 C 507.035156 511.460938 507.167969 513.65625 507.296875 516.105469 C 506.390625 522.554688 501.621094 528.359375 503.554688 535.066406 C 504.972656 540.355469 510.648438 545 516.066406 541.902344 C 520.449219 539.324219 520.449219 533.519531 519.417969 529.132812 C 518.773438 526.167969 517.613281 523.328125 516.582031 520.621094 L 512.96875 510.558594 C 510.519531 503.851562 508.070312 497.015625 505.617188 490.308594 C 503.683594 484.890625 500.074219 478.054688 505.230469 473.28125 C 513.484375 465.671875 527.027344 466.316406 536.699219 470.1875 C 547.921875 474.703125 556.820312 483.214844 565.460938 491.46875 C 562.496094 489.535156 559.140625 488.246094 555.53125 487.859375 C 548.179688 486.953125 539.925781 489.535156 535.410156 495.597656 C 529.476562 503.59375 532.058594 513.65625 533.992188 522.554688 L 540.3125 553.640625 C 540.3125 554.671875 540.441406 555.832031 540.828125 556.863281 C 536.570312 555.832031 532.1875 555.316406 528.058594 556.605469 C 522.511719 558.414062 518.773438 563.316406 516.710938 568.601562 C 514.257812 574.535156 513.097656 580.984375 511.292969 587.175781 C 510.003906 591.433594 508.585938 595.691406 507.035156 599.816406 C 504.972656 581.113281 502.652344 562.410156 497.621094 544.222656 C 493.238281 528.230469 486.53125 512.753906 476.730469 499.335938 C 467.054688 486.050781 454.417969 475.347656 439.585938 468.511719 C 432.234375 465.027344 424.496094 462.449219 416.5 460.898438 C 408.375 459.222656 400.121094 458.835938 391.867188 458.707031 C 384.515625 458.578125 377.164062 457.160156 372.777344 450.710938 C 369.425781 445.679688 368.265625 439.101562 370.585938 433.425781 C 371.101562 432.265625 370.714844 431.234375 370.070312 430.589844 C 369.554688 429.039062 367.878906 428.007812 366.199219 429.167969 C 364.652344 430.328125 362.976562 431.363281 361.300781 432.265625 C 361.6875 431.363281 361.945312 430.589844 362.332031 429.683594 C 361.6875 428.007812 361.042969 426.332031 360.65625 424.527344 C 412.5 425.945312 458.542969 431.878906 497.363281 439.359375 C 491.820312 429.167969 484.339844 413.820312 479.695312 393.957031 C 471.570312 359.773438 476.082031 332.171875 477.117188 323.402344 C 483.691406 271.804688 462.800781 159.332031 389.414062 120.25 C 336.925781 91.484375 267.667969 107.21875 223.429688 138.5625 C 223.300781 138.691406 223.171875 138.691406 223.042969 138.820312 C 218.140625 142.304688 200.859375 155.074219 184.609375 176.226562 C 172.097656 192.609375 160.105469 213.890625 154.945312 239.6875 C 143.46875 296.828125 174.550781 328.6875 157.523438 393.441406 C 150.820312 418.464844 139.984375 437.296875 132.246094 449.03125 C 171.324219 439.359375 218.914062 430.460938 273.597656 426.203125 C 273.210938 426.976562 273.210938 428.007812 273.726562 428.652344 C 274.761719 429.941406 275.535156 431.363281 275.664062 433.039062 C 276.050781 436.648438 274.242188 440.003906 271.921875 442.710938 C 268.957031 446.195312 265.085938 447.871094 260.703125 448.773438 C 255.285156 449.9375 249.609375 449.808594 244.066406 450.195312 C 239.035156 450.582031 234.132812 451.484375 229.621094 453.289062 C 212.726562 459.996094 201.375 475.992188 194.539062 492.242188 C 186.15625 511.976562 183.0625 533.90625 181.644531 555.1875 C 180.222656 577.761719 180.996094 600.460938 181.382812 623.164062 C 181.773438 647.414062 182.160156 671.535156 182.546875 695.78125 C 182.546875 697.074219 183.320312 697.71875 184.222656 697.976562 C 185.382812 699.78125 186.800781 701.457031 188.347656 703.007812 C 195.3125 709.84375 205.117188 713.066406 214.53125 714.613281 C 224.847656 716.292969 235.292969 716.550781 245.742188 716.808594 C 246 716.808594 246.386719 716.9375 246.644531 716.808594 L 249.996094 716.9375 C 278.113281 717.710938 306.230469 717.839844 334.34375 717.066406 C 362.460938 716.292969 390.574219 714.742188 418.5625 712.292969 C 436.230469 710.746094 453.773438 708.9375 471.3125 706.875 C 472.34375 707.390625 473.632812 707.261719 474.535156 706.488281 C 483.824219 705.328125 493.109375 704.039062 502.394531 702.75 C 530.25 698.75 557.980469 693.976562 585.582031 688.300781 C 586.226562 688.171875 586.742188 687.914062 587.257812 687.527344 C 587.644531 687.398438 587.902344 687.140625 588.160156 686.882812 C 589.707031 684.691406 591.253906 682.496094 592.675781 680.175781 C 593.0625 679.660156 593.320312 679.015625 593.320312 678.371094 C 593.320312 678.242188 593.320312 678.113281 593.191406 677.984375 C 596.15625 673.597656 599.25 669.339844 602.21875 664.957031 C 616.792969 644.058594 631.367188 623.164062 645.9375 602.269531 C 646.84375 600.976562 646.714844 599.042969 645.164062 598.269531 C 641.941406 596.59375 638.585938 595.042969 635.363281 593.496094 L 647.617188 575.4375 C 647.617188 575.4375 647.746094 575.308594 647.746094 575.179688 C 652.386719 575.050781 657.160156 572.34375 660.125 568.730469 C 662.707031 565.636719 664.640625 562.023438 666.703125 558.542969 C 668.765625 554.929688 670.832031 551.191406 672.507812 547.449219 C 675.730469 540.226562 677.667969 532.488281 676.503906 524.746094 Z M 510.003906 525.523438 C 510.519531 524.101562 511.164062 522.683594 511.550781 521.136719 C 511.679688 521.394531 511.679688 521.652344 511.808594 521.78125 C 512.839844 524.488281 514 527.328125 514.644531 530.292969 C 515.035156 531.972656 515.292969 534.164062 514.777344 535.839844 C 514.257812 537.257812 512.96875 538.035156 511.550781 537.386719 C 509.875 536.613281 508.84375 534.550781 508.457031 532.746094 C 508.199219 530.292969 509.230469 527.714844 510.003906 525.523438 Z M 286.238281 425.300781 Z M 286.625 421.042969 C 286.625 420.914062 286.625 420.785156 286.625 420.65625 C 286.625 420.785156 286.625 420.914062 286.625 421.042969 Z M 602.605469 475.347656 C 602.863281 475.476562 602.992188 475.734375 603.25 475.863281 C 602.863281 475.734375 602.734375 475.476562 602.605469 475.347656 Z M 602.605469 475.347656 " fill-opacity="1" fill-rule="nonzero"/><path fill="#000000" d="M 132.246094 449.03125 C 139.984375 437.296875 150.820312 418.464844 157.394531 393.570312 C 174.550781 328.816406 143.46875 296.957031 154.816406 239.816406 C 166.941406 179.453125 215.691406 143.980469 223.429688 138.5625 C 267.667969 107.21875 336.925781 91.484375 389.929688 119.730469 C 463.316406 158.945312 484.210938 271.289062 477.632812 322.886719 C 476.472656 331.65625 472.085938 359.257812 480.210938 393.441406 C 484.855469 413.175781 492.207031 428.652344 497.878906 438.84375 C 454.160156 430.460938 401.410156 424.007812 341.566406 423.75 C 257.863281 423.492188 186.671875 435.488281 132.246094 449.03125 Z M 132.246094 449.03125 " fill-opacity="1" fill-rule="nonzero"/><path fill="#f4c69f" d="M 174.9375 338.75 C 182.933594 352.164062 197.765625 360.675781 212.984375 363.128906 C 215.820312 363.644531 217.753906 363.773438 220.203125 363.128906 C 220.722656 362.742188 221.367188 362.484375 221.882812 362.613281 C 224.71875 361.582031 227.554688 360.160156 230.523438 359 C 233.101562 358.097656 235.8125 357.324219 238.390625 358.742188 C 240.839844 360.03125 242.773438 362.355469 244.582031 364.417969 C 246.773438 366.867188 248.835938 369.578125 250.898438 372.15625 C 252.964844 374.609375 255.285156 376.800781 257.734375 378.863281 C 258.378906 379.378906 259.027344 379.898438 259.542969 380.414062 C 259.800781 380.542969 259.929688 380.542969 260.1875 380.671875 C 260.703125 380.929688 261.089844 381.316406 261.347656 381.832031 C 267.28125 386.476562 273.46875 390.601562 280.433594 393.441406 C 295.394531 399.761719 312.03125 401.179688 328.023438 400.019531 C 358.71875 397.695312 390.703125 385.441406 411.984375 362.484375 C 417.144531 356.9375 421.65625 350.617188 424.882812 343.78125 C 428.75 335.914062 430.816406 327.140625 431.976562 318.5 C 434.296875 300.183594 431.847656 281.738281 432.234375 263.421875 C 432.363281 259.164062 432.621094 254.78125 433.136719 250.523438 C 433.394531 250.007812 433.652344 249.363281 433.78125 248.847656 C 433.78125 248.847656 433.910156 248.71875 433.910156 248.71875 C 433.910156 248.71875 433.910156 248.71875 433.78125 248.589844 C 434.167969 246.914062 434.167969 245.105469 433.523438 243.429688 C 418.949219 203.832031 393.027344 170.421875 358.332031 146.433594 C 351.109375 141.402344 339.761719 149.914062 342.984375 158.300781 C 344.015625 161.007812 345.050781 163.585938 346.210938 166.296875 C 346.210938 166.425781 346.082031 166.425781 346.082031 166.425781 C 339.117188 159.976562 326.605469 166.425781 326.21875 175.195312 C 323.769531 175.324219 321.320312 176.226562 319.253906 177.777344 C 317.191406 179.324219 315.902344 181.257812 315.257812 183.320312 C 314.484375 182.546875 313.710938 181.773438 312.804688 181 C 307.003906 175.839844 299.523438 177.132812 295.136719 181.386719 C 293.847656 179.839844 292.429688 178.292969 291.011719 176.742188 C 281.980469 166.8125 267.152344 177.90625 270.375 189.125 C 267.796875 189.640625 265.472656 190.804688 263.539062 192.609375 C 256.703125 182.675781 237.746094 191.707031 242 204.089844 C 242.386719 205.121094 242.773438 206.152344 243.160156 207.3125 C 239.679688 210.023438 237.488281 214.40625 238.519531 219.824219 C 239.292969 223.824219 240.195312 227.691406 241.355469 231.5625 C 242.515625 236.59375 243.550781 241.753906 244.453125 246.914062 C 243.9375 248.074219 243.417969 249.363281 242.902344 250.523438 C 241.742188 253.105469 240.582031 255.8125 239.164062 258.261719 C 237.875 260.585938 236.457031 262.90625 235.164062 265.226562 C 232.585938 270 230.78125 275.03125 227.945312 279.675781 C 222.269531 288.703125 219.042969 299.28125 220.074219 309.984375 C 220.335938 312.4375 221.109375 314.628906 222.011719 316.953125 C 222.527344 318.242188 222.785156 319.53125 223.171875 320.691406 C 223.558594 321.851562 224.203125 322.886719 224.71875 323.917969 C 225.878906 325.980469 227.8125 327.65625 229.363281 329.464844 C 231.039062 331.269531 233.488281 331.914062 235.683594 332.945312 C 235.8125 333.074219 235.941406 333.074219 236.070312 333.203125 C 237.230469 333.332031 238.132812 334.621094 238.132812 335.785156 C 238.132812 337.332031 236.972656 338.234375 235.550781 338.363281 C 229.492188 339.007812 225.105469 333.332031 221.496094 329.335938 C 217.367188 324.949219 213.5 320.304688 212.335938 314.371094 C 212.078125 312.953125 211.820312 311.40625 211.433594 309.984375 C 211.175781 308.953125 210.789062 307.792969 210.53125 306.761719 C 205.632812 304.054688 200.472656 301.730469 195.054688 300.3125 C 189.898438 298.894531 183.964844 298.378906 179.191406 300.957031 C 173.515625 304.054688 170.9375 311.019531 170.035156 317.082031 C 169.003906 324.433594 171.066406 332.042969 174.9375 338.75 Z M 186.15625 330.496094 C 186.285156 329.078125 186.800781 327.914062 188.089844 327.140625 C 188.476562 326.882812 188.992188 326.753906 189.382812 326.625 C 189.382812 326.625 189.640625 326.496094 189.640625 326.496094 C 189.769531 326.367188 189.898438 326.367188 190.15625 326.238281 C 192.089844 325.078125 194.023438 324.175781 196.214844 323.917969 C 197.507812 323.789062 198.667969 323.660156 199.957031 323.660156 C 201.246094 323.660156 202.535156 323.53125 203.824219 323.917969 C 205.761719 324.433594 208.082031 325.464844 209.371094 327.011719 C 210.273438 328.042969 210.402344 329.59375 209.371094 330.625 C 208.46875 331.527344 206.664062 331.65625 205.761719 330.625 C 205.246094 329.980469 205.117188 329.980469 204.339844 329.59375 C 204.339844 329.59375 204.339844 329.59375 204.210938 329.59375 C 204.082031 329.464844 203.824219 329.464844 203.566406 329.335938 C 203.179688 329.207031 202.921875 329.078125 202.535156 328.945312 C 201.890625 328.816406 200.988281 328.816406 200.214844 328.945312 C 199.3125 328.945312 198.410156 328.945312 197.636719 329.078125 C 196.34375 329.207031 194.796875 329.59375 193.636719 330.367188 C 192.863281 330.882812 192.089844 331.398438 191.1875 331.65625 C 191.1875 331.65625 191.058594 331.65625 191.058594 331.65625 C 190.671875 332.558594 189.769531 333.074219 188.734375 333.074219 C 187.445312 333.074219 186.15625 331.785156 186.15625 330.496094 Z M 277.210938 450.582031 C 284.046875 435.230469 291.398438 415.882812 283.402344 400.019531 C 296.941406 403.757812 316.03125 406.984375 338.34375 404.015625 C 344.792969 403.113281 350.722656 401.824219 356.140625 400.40625 C 355.109375 403.757812 354.851562 407.5 354.851562 410.722656 C 354.722656 417.300781 355.367188 424.140625 357.300781 430.460938 C 358.074219 433.167969 359.105469 436.132812 360.914062 438.457031 C 360.914062 438.457031 360.914062 438.457031 360.914062 438.585938 C 360.914062 438.714844 361.042969 438.84375 361.042969 438.972656 C 361.6875 440.390625 362.460938 441.808594 363.492188 442.96875 C 364.394531 444.003906 365.425781 444.90625 366.585938 445.808594 C 367.101562 446.195312 367.621094 446.710938 368.007812 447.226562 C 368.265625 447.484375 368.523438 447.742188 368.78125 448 C 368.910156 448.128906 369.039062 448.257812 369.039062 448.386719 C 369.554688 449.289062 370.714844 449.808594 371.746094 449.679688 C 371.875 450.710938 372.003906 451.742188 372.003906 452.902344 C 371.875 456.386719 370.585938 459.738281 368.910156 462.707031 C 368.265625 463.738281 367.75 464.898438 367.230469 466.058594 C 366.070312 468.640625 364.910156 471.21875 363.75 473.796875 C 359.882812 481.796875 355.625 489.535156 350.980469 497.015625 C 348.015625 501.660156 344.921875 506.171875 341.953125 510.816406 C 336.148438 519.71875 330.734375 528.746094 325.445312 538.035156 C 320.027344 528.359375 314.484375 518.554688 308.808594 509.011719 C 303.519531 500.113281 299.265625 490.566406 293.71875 481.925781 C 292.429688 479.859375 291.011719 477.796875 289.847656 475.734375 C 288.6875 473.667969 287.785156 471.347656 286.882812 469.15625 C 284.820312 464.511719 281.207031 460.253906 277.984375 456.257812 C 276.953125 454.964844 275.792969 453.675781 274.761719 452.257812 C 275.535156 452 276.824219 451.613281 277.210938 450.582031 Z M 277.210938 450.582031 " fill-opacity="1" fill-rule="nonzero"/><path fill="#e40000" d="M 248.964844 310.246094 C 255.800781 302.246094 268.183594 297.992188 278.113281 302.503906 C 280.820312 303.796875 283.144531 305.601562 285.078125 307.792969 C 290.496094 310.761719 294.621094 315.660156 296.425781 321.980469 C 300.683594 337.847656 287.398438 353.066406 271.277344 351.648438 C 270.503906 351.519531 269.730469 351.519531 268.957031 351.261719 C 259.671875 352.035156 250.640625 346.617188 245.871094 338.492188 C 240.324219 329.207031 242 318.242188 248.964844 310.246094 Z M 376.003906 330.238281 C 380.773438 338.363281 389.800781 343.78125 399.089844 343.007812 C 399.863281 343.136719 400.636719 343.265625 401.410156 343.394531 C 417.53125 344.8125 430.816406 329.59375 426.558594 313.726562 C 424.882812 307.277344 420.625 302.503906 415.210938 299.539062 C 413.273438 297.34375 410.953125 295.539062 408.246094 294.25 C 398.3125 289.734375 385.933594 294.121094 379.097656 301.988281 C 372.132812 309.984375 370.585938 320.949219 376.003906 330.238281 Z M 376.003906 330.238281 " fill-opacity="1" fill-rule="nonzero"/><path fill="#000000" d="M 274.113281 326.753906 C 270.761719 326.753906 270.761719 321.59375 274.113281 321.59375 C 277.339844 321.59375 277.339844 326.753906 274.113281 326.753906 Z M 288.300781 317.726562 C 284.949219 317.726562 284.949219 322.886719 288.300781 322.886719 C 291.65625 322.886719 291.65625 317.726562 288.300781 317.726562 Z M 287.140625 333.976562 C 283.789062 333.976562 283.789062 339.136719 287.140625 339.136719 C 290.496094 339.136719 290.496094 333.976562 287.140625 333.976562 Z M 309.453125 299.410156 C 309.453125 299.28125 309.453125 299.152344 309.453125 298.894531 C 309.453125 297.734375 308.550781 296.570312 307.390625 296.3125 C 306.617188 295.925781 305.585938 295.796875 304.808594 296.3125 C 304.035156 296.828125 303.648438 297.476562 303.261719 298.378906 C 303.132812 298.894531 303.003906 299.410156 303.003906 299.925781 C 303.003906 300.570312 303.003906 301.214844 303.132812 301.859375 C 303.132812 302.761719 303.132812 303.664062 303.261719 304.570312 C 303.390625 304.957031 303.519531 305.34375 303.648438 305.730469 C 303.648438 305.730469 303.648438 305.859375 303.648438 305.859375 C 304.164062 307.277344 305.195312 308.308594 306.746094 308.308594 C 307.90625 308.308594 308.9375 307.535156 309.195312 306.375 C 309.839844 304.441406 309.96875 302.503906 309.710938 300.570312 C 309.582031 300.183594 309.582031 299.796875 309.453125 299.410156 Z M 336.667969 322.886719 C 336.667969 323.660156 336.667969 324.433594 336.667969 325.207031 C 336.667969 326.625 337.828125 327.914062 339.246094 327.785156 C 340.664062 327.65625 341.824219 326.625 341.824219 325.207031 C 341.824219 324.304688 341.953125 323.53125 341.824219 322.625 C 341.695312 321.851562 341.4375 320.949219 341.308594 320.175781 C 341.179688 318.757812 341.308594 317.339844 341.4375 315.917969 C 341.4375 314.628906 340.277344 313.339844 338.859375 313.339844 C 337.441406 313.46875 336.277344 314.5 336.277344 315.917969 C 336.277344 317.082031 336.148438 318.242188 336.148438 319.402344 C 336.148438 320.175781 336.277344 320.820312 336.40625 321.59375 C 336.40625 321.980469 336.535156 322.367188 336.667969 322.886719 Z M 203.953125 323.917969 C 202.664062 323.660156 201.375 323.660156 200.085938 323.660156 C 198.796875 323.660156 197.636719 323.660156 196.34375 323.917969 C 194.023438 324.304688 192.21875 325.078125 190.285156 326.238281 C 190.15625 326.367188 190.027344 326.367188 189.769531 326.496094 C 189.640625 326.496094 189.511719 326.625 189.511719 326.625 C 188.992188 326.753906 188.605469 326.882812 188.21875 327.140625 C 186.929688 327.785156 186.285156 329.078125 186.285156 330.496094 C 186.15625 331.914062 187.574219 333.074219 188.863281 333.074219 C 189.898438 333.074219 190.800781 332.429688 191.1875 331.65625 C 191.1875 331.65625 191.316406 331.65625 191.316406 331.65625 C 192.21875 331.398438 192.992188 330.882812 193.765625 330.367188 C 194.925781 329.59375 196.601562 329.207031 197.765625 329.078125 C 198.667969 329.078125 199.570312 329.078125 200.34375 328.945312 C 201.117188 328.945312 202.019531 328.816406 202.664062 328.945312 C 203.050781 329.078125 203.4375 329.207031 203.695312 329.335938 C 203.824219 329.464844 204.082031 329.464844 204.339844 329.59375 C 204.339844 329.59375 204.46875 329.59375 204.46875 329.59375 C 205.246094 329.980469 205.503906 330.109375 205.890625 330.625 C 206.792969 331.785156 208.597656 331.527344 209.5 330.625 C 210.53125 329.59375 210.402344 328.042969 209.5 327.011719 C 208.210938 325.335938 205.890625 324.304688 203.953125 323.917969 Z M 272.953125 337.074219 C 269.601562 337.074219 269.601562 342.234375 272.953125 342.234375 C 276.308594 342.234375 276.308594 337.074219 272.953125 337.074219 Z M 262.121094 314.113281 C 258.765625 314.113281 258.765625 319.273438 262.121094 319.273438 C 265.472656 319.273438 265.472656 314.113281 262.121094 314.113281 Z M 259.671875 331.140625 C 256.316406 331.140625 256.316406 336.300781 259.671875 336.300781 C 263.023438 336.300781 263.023438 331.140625 259.671875 331.140625 Z M 413.789062 323.53125 C 410.4375 323.53125 410.4375 328.6875 413.789062 328.6875 C 417.144531 328.6875 417.144531 323.53125 413.789062 323.53125 Z M 400.507812 315.015625 C 397.152344 315.015625 397.152344 320.175781 400.507812 320.175781 C 403.859375 320.175781 403.859375 315.015625 400.507812 315.015625 Z M 407.214844 303.664062 C 403.859375 303.664062 403.859375 308.824219 407.214844 308.824219 C 410.566406 308.824219 410.566406 303.664062 407.214844 303.664062 Z M 459.445312 277.996094 C 459.445312 281.351562 459.316406 284.707031 458.800781 287.929688 C 457.640625 294.378906 454.933594 300.441406 451.191406 305.859375 C 449.257812 308.566406 447.066406 311.148438 444.742188 313.46875 C 443.582031 314.628906 442.421875 315.917969 441.132812 317.082031 C 440.617188 317.597656 439.972656 317.984375 439.328125 318.242188 C 438.941406 318.371094 438.425781 318.5 437.910156 318.5 L 437.78125 318.5 C 437.652344 318.628906 437.394531 318.757812 437.261719 318.886719 C 436.488281 324.820312 435.328125 330.625 433.523438 336.171875 C 431.074219 343.910156 427.332031 351.132812 422.5625 357.710938 C 413.144531 370.609375 400.25 380.800781 386.191406 388.28125 C 386.191406 388.410156 386.191406 388.410156 386.191406 388.539062 C 384.386719 389.441406 382.707031 390.214844 380.902344 390.988281 L 380.902344 390.859375 C 375.097656 393.699219 369.039062 396.019531 362.976562 397.953125 C 362.847656 398.082031 362.847656 398.082031 362.71875 398.210938 C 362.589844 398.46875 362.332031 398.726562 362.203125 398.988281 C 361.816406 399.761719 361.816406 399.761719 361.558594 400.535156 C 361.042969 401.953125 360.65625 403.5 360.527344 405.046875 C 360.398438 405.953125 360.269531 406.855469 360.269531 407.757812 C 360.65625 408.402344 360.65625 409.046875 360.527344 409.820312 C 360.269531 411.238281 360.140625 412.789062 360.140625 414.335938 C 360.140625 414.980469 360.140625 415.625 360.269531 416.269531 C 360.398438 418.722656 360.785156 421.171875 361.171875 423.621094 C 361.558594 425.429688 362.203125 427.234375 362.976562 429.039062 C 362.074219 431.234375 361.171875 433.425781 360.398438 435.617188 C 358.460938 432.136719 357.042969 428.523438 356.140625 424.65625 C 356.140625 424.65625 356.011719 424.65625 356.011719 424.65625 C 355.882812 423.75 355.753906 422.847656 355.625 422.074219 C 355.625 421.816406 355.496094 421.558594 355.496094 421.429688 C 355.496094 421.171875 355.496094 421.042969 355.367188 420.785156 C 355.238281 419.882812 355.109375 419.109375 355.109375 418.207031 C 354.851562 415.625 354.722656 412.917969 354.851562 410.335938 C 354.980469 407.113281 355.109375 403.371094 356.140625 400.019531 C 350.722656 401.566406 344.792969 402.855469 338.34375 403.628906 C 316.03125 406.597656 296.941406 403.371094 283.402344 399.632812 C 286.753906 406.210938 287.398438 413.175781 286.625 420.398438 C 286.367188 429.425781 283.402344 438.457031 277.855469 445.679688 C 276.953125 446.839844 275.664062 447.355469 274.371094 446.582031 C 273.339844 445.9375 272.566406 444.132812 273.46875 443.097656 C 281.335938 432.910156 283.660156 419.238281 279.53125 407.113281 C 279.273438 406.210938 279.402344 405.4375 279.917969 404.789062 C 279.53125 403.757812 279.015625 402.597656 278.5 401.566406 C 277.984375 399.890625 277.082031 398.339844 276.050781 397.050781 C 276.050781 396.921875 276.050781 396.921875 276.050781 396.792969 C 275.921875 396.792969 275.792969 396.664062 275.664062 396.664062 C 274.113281 394.730469 272.050781 393.054688 269.859375 391.761719 C 269.34375 391.503906 268.828125 391.246094 268.3125 391.246094 C 263.667969 387.636719 258.378906 384.539062 253.480469 381.058594 C 252.707031 380.285156 251.933594 379.507812 251.15625 378.605469 C 245.226562 371.898438 239.292969 363.902344 230.007812 365.320312 C 226.523438 365.191406 223.042969 366.09375 219.6875 366.996094 C 214.015625 367.515625 208.339844 366.222656 202.535156 366.09375 C 202.535156 365.964844 202.40625 365.964844 202.40625 365.835938 C 199.054688 364.675781 195.828125 363.257812 192.734375 361.839844 C 185.382812 358.097656 178.675781 352.679688 173.644531 346.101562 C 168.617188 339.523438 165.132812 331.914062 164.488281 323.660156 C 164.488281 323.015625 164.359375 322.238281 164.359375 321.59375 C 165.261719 316.566406 166.167969 311.535156 167.328125 306.632812 C 168.230469 304.570312 169.390625 302.632812 170.808594 300.957031 C 170.9375 300.699219 171.195312 300.570312 171.324219 300.3125 C 171.066406 300.054688 170.808594 299.796875 170.550781 299.667969 C 170.9375 299.152344 171.195312 298.636719 171.195312 297.863281 C 173.128906 280.0625 165.777344 262.519531 165.777344 244.589844 C 165.777344 228.082031 169.003906 211.699219 174.292969 196.09375 C 174.292969 196.09375 174.292969 196.09375 174.292969 195.960938 C 177.257812 188.996094 180.480469 182.417969 184.222656 175.839844 C 194.667969 161.136719 207.824219 148.367188 222.914062 138.433594 C 239.292969 127.988281 257.347656 120.636719 276.050781 116.765625 C 276.050781 116.765625 276.050781 116.765625 276.179688 116.765625 C 284.304688 114.703125 292.6875 113.28125 301.070312 112.25 C 309.453125 111.21875 318.09375 110.703125 326.605469 111.21875 C 330.863281 111.476562 335.246094 111.992188 339.375 112.765625 C 343.5 113.539062 347.5 115.089844 351.496094 116.507812 C 359.492188 119.214844 367.75 121.796875 375.359375 125.792969 C 382.707031 129.535156 389.800781 133.664062 397.023438 137.660156 C 398.832031 138.691406 400.765625 139.597656 402.441406 140.886719 C 403.859375 141.917969 405.148438 143.207031 406.699219 144.109375 C 409.535156 145.917969 411.855469 148.238281 413.917969 150.945312 C 416.113281 153.65625 418.046875 156.492188 420.238281 159.203125 C 422.949219 162.167969 424.625 165.78125 427.074219 169.003906 C 428.363281 170.679688 429.394531 172.359375 430.429688 174.164062 C 431.332031 175.582031 432.492188 176.871094 433.136719 178.421875 C 433.910156 180.097656 434.296875 181.773438 434.8125 183.582031 C 435.328125 185.128906 436.101562 186.417969 436.875 187.835938 C 438.167969 190.546875 439.070312 193.511719 440.230469 196.351562 C 441.390625 199.058594 442.550781 201.894531 443.710938 204.605469 C 446.808594 212.085938 448.742188 220.082031 450.289062 228.082031 C 450.289062 228.210938 450.289062 228.210938 450.289062 228.210938 C 451.835938 234.53125 453 240.851562 454.675781 247.171875 C 455.707031 250.652344 456.480469 254.136719 457.125 257.746094 C 457.769531 261.101562 458.671875 264.453125 458.800781 267.808594 C 458.800781 268.839844 458.671875 269.742188 458.800781 270.644531 C 458.929688 271.546875 459.058594 272.453125 459.1875 273.355469 C 459.445312 274.773438 459.445312 276.320312 459.445312 277.996094 Z M 433.394531 249.234375 C 432.878906 248.460938 432.492188 247.6875 432.234375 246.785156 C 431.203125 245.75 430.171875 244.847656 429.394531 243.6875 C 428.105469 241.882812 426.816406 240.203125 425.398438 238.527344 C 424.238281 237.238281 423.207031 235.820312 422.175781 234.402344 C 421.269531 233.496094 420.496094 232.59375 419.59375 231.691406 C 415.082031 226.917969 410.824219 222.019531 406.957031 216.730469 C 403.34375 211.699219 399.992188 206.539062 397.023438 201.121094 C 387.738281 225.886719 368.652344 246.914062 344.015625 256.972656 C 340.40625 258.519531 337.3125 252.84375 340.148438 250.394531 C 353.5625 239.042969 362.332031 223.050781 366.585938 206.152344 C 367.878906 200.863281 368.523438 195.703125 368.78125 190.546875 C 368.652344 185.515625 368.007812 180.613281 366.972656 175.710938 C 366.972656 175.710938 366.972656 175.582031 366.972656 175.582031 C 366.328125 174.035156 365.683594 172.617188 365.039062 171.070312 C 361.945312 185.515625 355.753906 198.800781 347.113281 210.539062 C 346.726562 211.054688 346.339844 211.570312 345.953125 212.214844 C 345.953125 212.214844 345.824219 212.34375 345.824219 212.34375 C 341.4375 218.148438 336.539062 223.566406 330.992188 228.339844 C 317.707031 240.203125 301.457031 248.976562 283.917969 253.234375 C 280.046875 254.136719 277.46875 248.589844 281.078125 246.652344 C 293.460938 239.945312 302.359375 229.757812 309.066406 217.246094 C 312.160156 211.3125 314.355469 205.378906 315.902344 199.316406 C 298.75 220.855469 273.46875 236.207031 246.515625 241.882812 C 245.355469 244.589844 244.195312 247.300781 243.03125 250.007812 C 241.871094 252.585938 240.710938 255.296875 239.292969 257.746094 C 238.003906 260.070312 236.585938 262.390625 235.292969 264.710938 C 232.714844 269.484375 230.910156 274.515625 228.074219 279.160156 C 222.398438 288.1875 219.171875 298.765625 220.207031 309.46875 C 220.464844 311.921875 221.238281 314.113281 222.140625 316.4375 C 222.65625 317.726562 222.914062 319.015625 223.300781 320.175781 C 223.6875 321.335938 224.332031 322.367188 224.847656 323.402344 C 226.007812 325.464844 227.8125 327.140625 229.492188 328.945312 C 231.167969 330.753906 233.617188 331.398438 235.8125 332.429688 C 235.941406 332.558594 236.070312 332.558594 236.199219 332.6875 C 237.359375 332.816406 238.261719 334.105469 238.261719 335.265625 C 238.261719 336.816406 237.101562 337.71875 235.679688 337.847656 C 229.621094 338.492188 225.234375 332.816406 221.625 328.816406 C 217.496094 324.433594 213.628906 319.789062 212.46875 313.855469 C 212.207031 312.4375 211.949219 310.890625 211.5625 309.46875 C 211.304688 308.4375 210.917969 307.40625 210.660156 306.246094 C 205.761719 303.535156 200.601562 301.214844 195.183594 299.796875 C 190.027344 298.378906 184.09375 297.863281 179.320312 300.441406 C 175.195312 302.632812 172.742188 306.890625 171.324219 311.277344 C 171.195312 311.40625 171.195312 311.664062 171.195312 311.921875 C 170.679688 313.46875 170.421875 315.015625 170.164062 316.566406 C 169.132812 324.304688 171.066406 331.914062 175.066406 338.621094 C 183.0625 352.035156 197.894531 360.417969 213.113281 363 C 215.949219 363.515625 217.882812 363.644531 220.335938 363 C 220.851562 362.613281 221.496094 362.484375 222.011719 362.484375 C 224.847656 361.324219 227.683594 360.03125 230.523438 358.871094 C 233.101562 357.96875 235.8125 357.195312 238.390625 358.613281 C 240.839844 359.902344 242.773438 362.226562 244.582031 364.289062 C 246.773438 366.738281 248.835938 369.449219 250.898438 372.027344 C 252.964844 374.480469 255.285156 376.671875 257.734375 378.734375 C 258.378906 379.25 259.027344 379.769531 259.542969 380.285156 C 259.800781 380.414062 259.929688 380.414062 260.1875 380.542969 C 260.703125 380.800781 261.089844 381.1875 261.347656 381.703125 C 267.28125 386.347656 273.46875 390.472656 280.433594 393.3125 C 295.394531 399.632812 312.03125 401.050781 328.023438 399.890625 C 358.71875 397.566406 390.707031 385.3125 411.984375 362.355469 C 417.144531 356.808594 421.65625 350.488281 424.882812 343.652344 C 428.75 335.785156 430.945312 327.011719 431.976562 318.371094 C 434.296875 300.054688 431.847656 281.609375 432.234375 263.292969 C 432.363281 258.90625 432.621094 254.523438 433.136719 250.136719 C 433.265625 249.75 433.265625 249.492188 433.394531 249.234375 Z M 448.226562 281.480469 C 448.355469 276.707031 447.195312 272.195312 445.90625 267.679688 C 444.484375 262.777344 442.035156 258.648438 439.070312 254.523438 C 438.8125 254.007812 438.425781 253.621094 438.039062 253.234375 C 436.230469 271.289062 438.683594 289.476562 438.039062 307.535156 C 438.039062 307.921875 438.039062 308.308594 438.039062 308.566406 C 438.167969 308.308594 438.167969 308.179688 438.296875 307.921875 C 438.8125 306.890625 439.714844 305.988281 440.359375 304.957031 C 441.90625 302.632812 442.808594 299.667969 443.96875 297.214844 C 445.132812 294.636719 446.035156 291.929688 446.679688 289.21875 C 447.453125 286.640625 448.097656 284.058594 448.226562 281.480469 Z M 381.675781 318.757812 C 378.324219 318.757812 378.324219 323.917969 381.675781 323.917969 C 385.03125 323.917969 385.03125 318.757812 381.675781 318.757812 Z M 397.796875 330.109375 C 394.445312 330.109375 394.445312 335.265625 397.796875 335.265625 C 401.023438 335.265625 401.023438 330.109375 397.796875 330.109375 Z M 351.367188 336.300781 C 349.949219 335.914062 348.660156 336.816406 348.144531 338.105469 C 348.402344 337.589844 348.273438 337.847656 347.886719 338.105469 C 347.628906 338.363281 347.371094 338.492188 347.113281 338.75 C 346.597656 339.265625 346.082031 339.78125 345.4375 340.167969 C 344.144531 341.070312 342.46875 341.847656 340.921875 342.105469 C 339.375 342.363281 338.085938 342.105469 336.796875 341.847656 C 335.375 341.457031 334.214844 340.941406 333.3125 339.910156 C 330.992188 337.589844 327.378906 341.199219 329.703125 343.523438 C 332.925781 346.746094 337.957031 347.777344 342.210938 347.003906 C 343.371094 346.746094 344.535156 346.359375 345.566406 345.84375 C 346.597656 345.328125 347.628906 344.941406 348.53125 344.296875 C 349.433594 343.652344 350.207031 342.878906 351.109375 342.105469 C 352.144531 341.328125 352.789062 340.554688 353.175781 339.394531 C 353.691406 338.234375 352.53125 336.6875 351.367188 336.300781 Z M 370.070312 296.054688 C 370.070312 295.925781 370.070312 295.667969 370.070312 295.539062 C 370.070312 294.378906 369.167969 293.089844 367.878906 292.960938 C 367.101562 292.574219 366.070312 292.445312 365.296875 292.960938 C 364.523438 293.476562 364.136719 294.121094 363.75 295.023438 C 363.621094 295.539062 363.492188 296.054688 363.492188 296.570312 C 363.492188 297.214844 363.492188 297.863281 363.621094 298.507812 C 363.621094 299.410156 363.621094 300.3125 363.75 301.214844 C 363.878906 301.601562 364.007812 301.988281 364.136719 302.375 C 364.136719 302.375 364.136719 302.503906 364.136719 302.503906 C 364.652344 303.925781 365.683594 304.957031 367.230469 304.957031 C 368.394531 304.957031 369.425781 304.183594 369.683594 303.019531 C 370.328125 301.085938 370.457031 299.152344 370.199219 297.085938 C 370.328125 296.828125 370.199219 296.441406 370.070312 296.054688 Z M 388.253906 304.570312 C 384.902344 304.570312 384.902344 309.726562 388.253906 309.726562 C 391.609375 309.726562 391.609375 304.570312 388.253906 304.570312 Z M 388.253906 304.570312 " fill-opacity="1" fill-rule="nonzero"/><path fill="#e40000" d="M 638.976562 554.671875 C 638.714844 555.1875 638.585938 555.703125 638.328125 556.347656 C 637.296875 556.605469 636.265625 557.511719 636.265625 558.929688 C 636.265625 566.152344 629.945312 571.183594 623.757812 573.375 C 610.730469 578.277344 596.027344 573.117188 585.839844 564.347656 C 575.519531 555.445312 568.554688 541.773438 569.589844 527.84375 C 569.589844 527.84375 569.589844 527.714844 569.589844 527.714844 C 570.363281 528.359375 571.136719 529.003906 572.039062 529.519531 C 572.8125 534.292969 574.359375 538.808594 576.550781 543.191406 C 581.710938 553.125 590.609375 560.734375 601.1875 564.347656 C 611.890625 567.957031 624.144531 567.3125 634.332031 562.28125 C 635.621094 561.636719 636.394531 560.476562 635.878906 559.058594 C 635.492188 557.898438 633.816406 556.863281 632.65625 557.511719 C 627.367188 560.089844 621.820312 561.378906 616.019531 561.507812 C 605.957031 561.765625 596.027344 557.898438 588.804688 550.933594 C 583.773438 546.03125 580.035156 539.839844 578.230469 533.132812 C 579.777344 533.90625 581.324219 534.421875 582.871094 535.066406 C 584.417969 535.582031 586.226562 533.90625 585.96875 532.359375 C 584.546875 524.617188 583.128906 516.621094 580.164062 509.269531 C 583.128906 510.042969 586.097656 510.945312 589.191406 511.71875 C 589.449219 515.589844 589.964844 519.332031 590.738281 523.070312 C 591.511719 526.8125 592.546875 530.550781 593.964844 534.035156 C 595.253906 537 597.703125 539.582031 601.316406 539.324219 C 603.378906 539.195312 604.925781 538.164062 606.34375 536.871094 C 606.988281 538.550781 607.894531 539.96875 609.054688 541.257812 C 612.148438 544.613281 616.792969 545.902344 621.175781 545 C 624.789062 544.351562 627.238281 542.417969 629.171875 539.96875 C 629.6875 542.933594 630.589844 545.902344 632.140625 548.609375 C 633.6875 551.320312 636.136719 553.382812 638.976562 554.671875 Z M 474.148438 504.238281 C 464.863281 490.824219 452.609375 480.117188 437.910156 473.152344 C 430.300781 469.542969 422.304688 466.960938 414.050781 465.414062 L 414.179688 468.121094 C 414.566406 468.640625 414.695312 469.285156 414.566406 470.058594 C 414.4375 470.445312 414.4375 470.703125 414.308594 471.089844 C 414.308594 471.21875 414.308594 471.476562 414.308594 471.605469 C 414.308594 472.25 414.050781 472.894531 413.660156 473.410156 C 408.632812 493.921875 402.183594 513.914062 394.574219 533.519531 C 386.449219 554.15625 376.90625 574.277344 365.941406 593.496094 C 363.621094 597.625 361.300781 603.042969 357.042969 605.492188 C 356.398438 605.878906 355.882812 606.136719 355.238281 606.265625 C 357.816406 609.75 359.753906 613.617188 360.914062 617.875 C 362.332031 623.164062 362.976562 629.355469 360.65625 634.515625 C 358.589844 639.15625 353.304688 641.996094 348.402344 640.0625 C 342.339844 637.738281 343.5 629.355469 343.886719 624.195312 C 344.277344 617.875 345.308594 611.554688 346.984375 605.363281 C 345.824219 604.71875 344.792969 604.074219 343.886719 603.171875 C 339.890625 599.6875 336.667969 595.042969 333.3125 590.917969 C 329.703125 586.402344 326.089844 581.886719 322.480469 577.375 C 308.035156 559.1875 294.234375 540.484375 280.820312 521.523438 C 267.410156 502.5625 254.640625 483.214844 242.257812 463.480469 C 240.710938 461.15625 239.292969 458.707031 237.746094 456.257812 C 231.296875 457.675781 225.363281 460.511719 220.074219 464.898438 C 213.242188 470.445312 207.824219 477.796875 203.695312 485.40625 C 193.765625 503.722656 189.769531 525.003906 187.832031 545.644531 C 186.671875 557.125 186.285156 568.601562 186.285156 580.082031 C 186.542969 580.210938 186.800781 580.339844 186.929688 580.597656 C 199.957031 595.175781 218.269531 604.460938 237.746094 606.652344 C 243.03125 607.296875 248.320312 607.296875 253.480469 606.78125 C 253.738281 598.398438 253.738281 590.144531 253.738281 581.757812 C 253.738281 571.441406 253.480469 560.992188 253.09375 550.671875 C 252.964844 547.320312 258.121094 547.0625 258.25 550.285156 C 259.542969 587.046875 258.765625 623.9375 255.800781 660.699219 C 255.027344 671.019531 253.996094 681.335938 252.835938 691.65625 C 252.835938 691.785156 252.835938 691.785156 252.835938 691.914062 C 253.609375 698.621094 252.707031 705.457031 250.253906 711.648438 C 276.050781 712.421875 301.714844 712.421875 327.507812 711.90625 C 355.238281 711.261719 382.964844 709.84375 410.566406 707.648438 C 430.429688 706.101562 450.289062 704.039062 470.023438 701.714844 L 468.992188 685.980469 C 468.347656 685.59375 467.828125 684.949219 467.828125 684.046875 C 463.960938 649.347656 460.089844 614.523438 456.351562 579.824219 C 455.320312 570.023438 454.160156 560.21875 453.128906 550.414062 C 452.742188 547.0625 457.898438 546.804688 458.285156 550.027344 C 459.316406 559.316406 460.347656 568.472656 461.382812 577.632812 C 461.511719 577.503906 461.769531 577.375 462.027344 577.375 C 476.085938 574.535156 488.207031 564.863281 494.140625 551.707031 C 494.269531 551.449219 494.398438 551.191406 494.65625 550.933594 C 490.269531 534.550781 484.082031 518.554688 474.148438 504.238281 Z M 474.148438 504.238281 " fill-opacity="1" fill-rule="nonzero"/><path fill="#ffffff" d="M 640.265625 601.363281 C 636.78125 606.394531 633.171875 611.554688 629.6875 616.585938 C 615.113281 637.480469 600.542969 658.375 585.96875 679.273438 C 585.453125 679.917969 585.195312 680.820312 585.453125 681.59375 C 585.066406 682.109375 584.679688 682.625 584.417969 683.140625 C 581.453125 683.789062 578.359375 684.304688 575.390625 684.949219 C 548.179688 690.238281 520.835938 694.878906 493.367188 698.621094 C 487.304688 699.394531 481.242188 700.296875 475.308594 700.941406 L 473.761719 677.855469 C 473.632812 676.691406 472.988281 676.046875 472.214844 675.660156 C 471.441406 668.4375 470.667969 661.34375 469.894531 654.121094 L 461.898438 582.015625 C 462.414062 582.273438 463.058594 582.273438 463.703125 582.144531 C 477.246094 579.308594 489.367188 570.410156 496.332031 558.542969 C 499.6875 574.664062 501.492188 591.304688 503.167969 607.425781 C 503.167969 607.945312 503.425781 608.460938 503.683594 608.71875 C 498.007812 621.617188 490.914062 633.871094 482.53125 645.089844 C 480.597656 647.800781 484.46875 651.152344 486.402344 648.445312 C 496.074219 635.546875 504.070312 621.488281 510.132812 606.652344 C 512.839844 599.945312 515.164062 593.238281 517.097656 586.273438 C 518.773438 580.597656 519.675781 574.535156 522.253906 569.117188 C 524.835938 563.703125 528.960938 559.832031 535.28125 560.476562 C 539.023438 560.863281 542.761719 562.152344 546.375 563.3125 C 549.984375 564.476562 553.726562 565.636719 557.335938 566.796875 C 585.710938 576.34375 613.4375 587.949219 640.265625 601.363281 Z M 356.011719 620.195312 C 355.109375 616.328125 353.433594 612.714844 351.109375 609.621094 C 350.335938 612.714844 349.820312 615.8125 349.304688 619.035156 C 348.917969 621.617188 348.789062 624.066406 348.660156 626.644531 C 348.53125 628.839844 348.144531 632.0625 349.046875 634.128906 C 349.5625 635.417969 350.980469 635.675781 352.144531 635.417969 C 353.820312 635.160156 354.851562 634 355.625 632.578125 C 357.558594 628.96875 356.914062 624.066406 356.011719 620.195312 Z M 402.570312 463.867188 C 398.441406 463.480469 394.1875 463.609375 390.058594 463.480469 C 385.289062 463.222656 380.515625 462.578125 376.261719 460.253906 C 372.90625 458.449219 370.199219 455.742188 368.136719 452.515625 C 365.039062 447.613281 363.75 441.679688 364.523438 436.003906 C 344.144531 447.871094 317.835938 448.515625 296.683594 438.328125 C 293.460938 436.78125 290.367188 434.972656 287.527344 432.910156 C 285.980469 431.878906 284.5625 430.71875 283.144531 429.554688 C 282.5 429.039062 281.980469 428.523438 281.335938 428.007812 C 280.691406 428.394531 280.046875 428.394531 279.402344 428.136719 C 282.628906 434.585938 279.273438 442.710938 274.242188 447.613281 C 266.246094 455.09375 255.027344 454.578125 244.839844 455.222656 C 244.195312 455.222656 243.550781 455.351562 242.902344 455.480469 C 254.382812 473.925781 266.246094 492.113281 278.628906 510.042969 C 291.398438 528.488281 304.679688 546.546875 318.351562 564.347656 C 325.1875 573.246094 332.28125 582.015625 339.375 590.789062 C 342.082031 594.140625 344.921875 598.527344 348.917969 600.71875 C 349.433594 600.460938 350.078125 600.203125 350.722656 600.332031 C 351.367188 600.460938 352.011719 600.976562 352.402344 601.625 C 355.238281 601.238281 357.171875 598.011719 358.71875 595.433594 C 369.554688 576.859375 379.097656 557.511719 387.222656 537.644531 C 395.347656 517.910156 402.054688 497.53125 407.34375 476.894531 C 407.859375 474.832031 408.375 472.636719 408.890625 470.574219 C 408.890625 468.511719 408.761719 466.445312 408.761719 464.511719 C 406.699219 464.253906 404.632812 463.996094 402.570312 463.867188 Z M 253.09375 612.070312 C 232.972656 613.746094 212.464844 607.945312 196.085938 596.078125 C 192.476562 593.496094 189.121094 590.53125 185.898438 587.433594 C 185.898438 596.078125 186.15625 604.847656 186.285156 613.488281 C 186.671875 637.738281 187.058594 662.117188 187.445312 686.367188 C 187.445312 688.816406 187.574219 691.398438 187.574219 693.847656 C 187.703125 693.976562 187.832031 694.105469 187.960938 694.363281 C 193.121094 702.488281 201.890625 706.617188 211.046875 708.679688 C 221.882812 711.132812 233.101562 711.132812 244.066406 711.519531 C 244.195312 711.519531 244.324219 711.519531 244.453125 711.519531 C 247.417969 705.199219 248.320312 698.234375 247.417969 691.398438 C 247.289062 690.882812 247.417969 690.367188 247.675781 689.976562 C 250.640625 664.050781 252.320312 638.125 253.09375 612.070312 Z M 253.09375 612.070312 " fill-opacity="1" fill-rule="nonzero"/><g clip-path="url(#b5e0c5197d)"><path fill="#000000" d="M 676.503906 524.746094 C 675.472656 517.78125 672.25 510.945312 666.316406 506.949219 C 666.058594 506.820312 665.800781 506.691406 665.542969 506.5625 C 665.542969 506.5625 665.542969 506.433594 665.542969 506.433594 C 666.058594 497.402344 663.609375 488.503906 656.386719 482.699219 C 650.324219 477.925781 642.070312 475.992188 635.234375 480.246094 C 634.847656 480.503906 634.71875 480.632812 634.460938 480.890625 C 633.300781 479.085938 631.882812 477.410156 630.332031 475.863281 C 625.5625 470.960938 618.855469 467.863281 612.019531 468.382812 C 611.890625 468.25 611.761719 468.25 611.761719 468.121094 C 611.503906 467.992188 611.117188 467.863281 610.859375 467.734375 C 610.472656 467.476562 610.085938 467.476562 609.570312 467.476562 C 609.3125 467.476562 609.054688 467.605469 608.925781 467.605469 C 608.539062 467.734375 608.152344 467.992188 607.761719 468.382812 C 607.761719 468.382812 607.761719 468.382812 607.761719 468.511719 C 607.375 468.769531 607.117188 469.027344 606.859375 469.414062 C 606.601562 469.414062 606.472656 469.542969 606.214844 469.542969 C 605.828125 469.671875 605.570312 469.800781 605.183594 470.058594 C 605.183594 470.058594 605.183594 470.058594 605.054688 470.058594 C 604.667969 469.929688 604.28125 469.800781 603.894531 469.800781 C 596.671875 463.996094 586.484375 461.027344 577.714844 465.027344 C 570.363281 468.382812 565.589844 475.734375 564.945312 483.601562 C 556.5625 475.734375 547.664062 468.25 536.699219 464.511719 C 526.125 460.898438 513.613281 460.898438 504.199219 467.605469 C 501.878906 469.285156 499.6875 471.347656 498.523438 474.054688 C 497.363281 476.894531 497.363281 479.988281 498.007812 482.957031 C 498.652344 486.179688 499.945312 489.148438 501.105469 492.242188 L 507.167969 509.011719 C 507.296875 511.460938 507.425781 513.65625 507.554688 516.105469 C 506.648438 522.554688 501.878906 528.359375 503.8125 535.066406 C 505.230469 540.355469 510.90625 545 516.324219 541.902344 C 520.707031 539.324219 520.707031 533.519531 519.675781 529.132812 C 519.03125 526.167969 517.871094 523.328125 516.839844 520.621094 L 513.226562 510.6875 C 510.777344 503.980469 508.328125 497.144531 505.875 490.4375 C 503.941406 485.019531 500.332031 478.183594 505.488281 473.410156 C 513.742188 465.800781 527.285156 466.445312 536.957031 470.316406 C 548.179688 474.832031 557.078125 483.34375 565.71875 491.726562 C 562.753906 489.792969 559.398438 488.503906 555.789062 487.988281 C 548.4375 487.082031 540.183594 489.664062 535.667969 495.726562 C 529.734375 503.722656 532.316406 513.785156 534.25 522.683594 L 540.570312 553.769531 C 540.570312 554.800781 540.828125 555.960938 541.085938 556.992188 C 536.828125 555.960938 532.445312 555.445312 528.316406 556.734375 C 522.773438 558.542969 519.03125 563.445312 516.839844 568.730469 C 514.386719 574.664062 513.226562 581.113281 511.421875 587.304688 C 510.132812 591.5625 508.714844 595.820312 507.164062 599.945312 C 505.101562 581.242188 502.78125 562.539062 497.75 544.351562 C 493.367188 528.359375 486.660156 512.882812 476.859375 499.464844 C 467.183594 486.179688 454.546875 475.476562 439.714844 468.511719 C 432.363281 465.027344 424.625 462.449219 416.628906 460.898438 C 408.503906 459.222656 400.25 458.835938 391.996094 458.707031 C 384.644531 458.578125 377.292969 457.160156 372.90625 450.710938 C 369.554688 445.679688 368.394531 439.101562 370.714844 433.425781 C 371.230469 432.265625 370.84375 431.234375 370.199219 430.589844 C 369.683594 429.039062 368.007812 428.007812 366.328125 429.167969 C 359.878906 433.683594 352.660156 436.910156 345.050781 438.84375 C 331.636719 442.195312 316.933594 441.292969 304.035156 436.261719 C 297.585938 433.8125 291.527344 430.328125 286.238281 425.816406 C 284.949219 424.65625 283.789062 423.234375 282.238281 422.332031 C 280.5625 421.429688 278.242188 421.6875 277.339844 423.363281 C 276.953125 424.007812 276.824219 424.785156 276.953125 425.429688 C 276.179688 425.042969 275.277344 424.914062 274.371094 425.558594 C 273.339844 426.332031 272.824219 428.136719 273.726562 429.167969 C 274.761719 430.460938 275.535156 431.75 275.664062 433.554688 C 276.050781 437.039062 274.242188 440.519531 271.921875 443.230469 C 268.957031 446.710938 265.085938 448.386719 260.703125 449.289062 C 255.15625 450.453125 249.609375 450.324219 244.066406 450.710938 C 239.164062 451.097656 234.132812 452 229.621094 453.933594 C 212.726562 460.640625 201.503906 476.636719 194.539062 492.886719 C 186.15625 512.621094 183.0625 534.550781 181.644531 555.832031 C 180.222656 578.40625 180.867188 601.105469 181.253906 623.808594 C 181.644531 648.058594 182.03125 672.179688 182.417969 696.429688 C 182.417969 697.71875 183.191406 698.363281 184.09375 698.621094 C 185.253906 700.425781 186.671875 702.101562 188.21875 703.652344 C 195.183594 710.488281 204.988281 713.710938 214.402344 715.257812 C 224.589844 716.9375 235.164062 717.195312 245.613281 717.453125 C 245.871094 717.453125 246.257812 717.582031 246.515625 717.453125 L 249.867188 717.582031 C 277.984375 718.355469 306.101562 718.484375 334.214844 717.710938 C 362.332031 716.9375 390.445312 715.390625 418.433594 712.9375 C 436.101562 711.390625 453.644531 709.585938 471.183594 707.519531 C 472.214844 708.035156 473.503906 707.90625 474.40625 707.132812 C 483.691406 705.972656 492.980469 704.683594 502.265625 703.394531 C 530.121094 699.394531 557.851562 694.621094 585.453125 688.945312 C 586.097656 688.816406 586.613281 688.558594 587.128906 688.171875 C 587.515625 688.042969 587.773438 687.785156 588.03125 687.527344 C 589.578125 685.335938 591.125 683.140625 592.546875 680.820312 C 592.933594 680.175781 593.191406 679.660156 593.191406 679.015625 C 593.191406 678.886719 593.191406 678.757812 593.0625 678.628906 C 596.027344 674.242188 599.121094 669.984375 602.089844 665.601562 C 616.664062 644.703125 631.238281 623.808594 645.808594 602.914062 C 646.714844 601.625 646.582031 599.6875 645.035156 598.914062 C 641.8125 597.238281 638.457031 595.691406 635.234375 594.140625 L 647.488281 576.085938 C 647.488281 575.953125 647.617188 575.953125 647.617188 575.824219 C 652.257812 575.695312 657.03125 572.988281 659.996094 569.375 C 662.578125 566.28125 664.511719 562.667969 666.574219 559.1875 C 668.636719 555.574219 670.703125 551.835938 672.378906 548.09375 C 675.730469 540.226562 677.667969 532.488281 676.503906 524.746094 Z M 511.679688 521.136719 C 511.808594 521.394531 511.808594 521.652344 511.9375 521.78125 C 512.96875 524.617188 514.128906 527.328125 514.777344 530.292969 C 515.164062 531.972656 515.421875 534.164062 514.90625 535.839844 C 514.386719 537.128906 513.097656 538.035156 511.679688 537.386719 C 510.003906 536.613281 508.972656 534.550781 508.585938 532.875 C 508.070312 530.421875 509.101562 527.84375 510.003906 525.652344 C 510.519531 524.101562 511.164062 522.554688 511.679688 521.136719 Z M 639.878906 497.015625 C 639.492188 492.757812 638.457031 488.632812 636.652344 484.890625 C 637.167969 484.890625 637.554688 484.761719 638.070312 484.503906 C 643.875 480.890625 651.097656 484.246094 655.355469 488.890625 C 660.640625 494.695312 661.027344 502.949219 659.996094 510.300781 C 658.707031 519.074219 655.742188 527.714844 653.160156 536.226562 C 651.871094 540.613281 650.582031 549.253906 645.421875 550.542969 C 644.519531 549.253906 642.457031 548.738281 641.296875 550.15625 C 634.71875 547.578125 633.945312 538.808594 633.429688 532.875 C 633.429688 532.617188 633.300781 532.359375 633.171875 532.101562 C 633.945312 530.035156 634.589844 527.972656 635.234375 525.910156 C 638.199219 516.621094 640.652344 506.820312 639.878906 497.015625 Z M 636.136719 559.058594 C 635.75 557.898438 634.074219 556.863281 632.914062 557.511719 C 627.625 560.089844 622.078125 561.378906 616.277344 561.507812 C 606.214844 561.765625 596.285156 557.898438 589.0625 550.933594 C 584.03125 546.03125 580.292969 539.839844 578.488281 533.132812 C 580.035156 533.90625 581.582031 534.421875 583.128906 535.066406 C 584.679688 535.582031 586.484375 533.90625 586.226562 532.359375 C 584.808594 524.617188 583.386719 516.621094 580.421875 509.269531 C 583.386719 510.042969 586.355469 510.945312 589.449219 511.71875 C 589.707031 515.589844 590.222656 519.332031 590.996094 523.070312 C 591.769531 526.8125 592.804688 530.550781 594.222656 534.035156 C 595.511719 537 597.960938 539.582031 601.574219 539.324219 C 603.636719 539.195312 605.183594 538.164062 606.601562 536.871094 C 607.246094 538.550781 608.152344 539.96875 609.3125 541.257812 C 612.40625 544.613281 617.050781 545.902344 621.433594 545 C 625.046875 544.351562 627.496094 542.417969 629.429688 539.96875 C 629.945312 542.933594 630.847656 545.902344 632.398438 548.609375 C 633.945312 551.191406 636.394531 553.382812 639.234375 554.671875 C 638.976562 555.1875 638.847656 555.703125 638.585938 556.347656 C 637.554688 556.605469 636.523438 557.511719 636.523438 558.929688 C 636.523438 566.152344 630.203125 571.183594 624.015625 573.375 C 610.988281 578.277344 596.285156 573.117188 586.097656 564.347656 C 575.777344 555.445312 568.8125 541.773438 569.847656 527.84375 C 569.847656 527.84375 569.847656 527.714844 569.847656 527.714844 C 570.621094 528.359375 571.394531 529.003906 572.296875 529.519531 C 573.070312 534.292969 574.617188 538.808594 576.808594 543.191406 C 581.96875 553.125 590.867188 560.734375 601.445312 564.347656 C 612.148438 567.957031 624.402344 567.3125 634.589844 562.28125 C 635.75 561.765625 636.652344 560.476562 636.136719 559.058594 Z M 570.878906 490.566406 C 567.78125 481.410156 573.328125 470.574219 582.871094 468.511719 C 589.964844 466.960938 597.316406 470.316406 602.476562 475.21875 C 602.605469 475.476562 602.863281 475.605469 603.121094 475.863281 C 603.765625 476.507812 604.28125 477.023438 604.796875 477.667969 C 611.761719 486.050781 612.535156 497.273438 610.988281 507.59375 C 610.085938 513.527344 608.410156 519.203125 606.601562 524.875 C 605.828125 527.199219 605.054688 529.648438 603.636719 531.710938 C 602.863281 532.746094 601.316406 534.808594 599.765625 533.777344 C 598.863281 533.132812 598.605469 531.710938 598.21875 530.808594 C 597.703125 529.390625 597.1875 527.972656 596.800781 526.554688 C 596.027344 523.714844 595.382812 520.75 594.867188 517.78125 C 593.964844 511.847656 593.707031 505.785156 594.222656 499.851562 C 594.351562 498.433594 593.707031 497.144531 592.15625 496.757812 C 590.867188 496.5 589.191406 497.402344 589.0625 498.820312 C 588.804688 501.273438 588.804688 503.722656 588.804688 506.171875 C 585.453125 505.269531 582.226562 504.367188 578.875 503.464844 C 578.359375 503.335938 577.714844 503.464844 577.328125 503.59375 C 576.808594 502.691406 576.292969 501.789062 575.648438 501.015625 C 573.84375 498.304688 571.523438 495.855469 569.070312 493.664062 C 570.492188 493.402344 571.523438 492.242188 570.878906 490.566406 Z M 540.183594 498.046875 C 544.179688 493.273438 551.273438 491.597656 557.207031 493.015625 C 564.429688 494.824219 569.976562 500.628906 573.457031 506.820312 C 577.199219 513.398438 578.875 520.878906 580.164062 528.230469 C 579.132812 527.714844 578.101562 527.199219 577.199219 526.554688 C 577.199219 526.039062 577.070312 525.523438 577.070312 524.875 C 576.941406 522.425781 574.101562 522.039062 572.683594 523.199219 C 569.332031 520.363281 566.492188 516.878906 564.429688 513.011719 C 563.785156 511.847656 561.851562 511.589844 560.816406 512.363281 C 559.527344 513.269531 559.527344 514.6875 560.171875 515.976562 C 561.980469 519.332031 564.171875 522.167969 566.75 524.875 C 565.847656 525.132812 564.945312 525.78125 564.816406 526.8125 C 564.042969 535.96875 566.105469 544.871094 570.492188 552.996094 C 574.875 561.121094 581.582031 568.214844 589.449219 573.117188 C 576.941406 568.34375 564.300781 563.832031 551.53125 559.832031 C 550.5 559.445312 549.339844 559.1875 548.308594 558.800781 C 548.179688 558.542969 548.050781 558.414062 547.921875 558.285156 C 547.792969 558.15625 547.792969 558.15625 547.664062 558.027344 C 547.277344 557.511719 546.890625 556.996094 546.503906 556.347656 C 546.246094 555.703125 545.988281 555.058594 545.859375 554.414062 C 545.859375 554.15625 545.859375 553.898438 545.859375 553.769531 C 545.859375 553.511719 545.730469 553.253906 545.730469 553.125 C 545.730469 552.996094 545.730469 552.867188 545.730469 552.738281 C 545.730469 552.480469 545.597656 552.09375 545.46875 551.707031 C 543.40625 541.644531 541.34375 531.453125 539.28125 521.394531 C 537.730469 514.042969 534.765625 504.496094 540.183594 498.046875 Z M 244.96875 455.351562 C 255.15625 454.578125 266.375 455.222656 274.371094 447.742188 C 279.402344 442.96875 282.757812 434.84375 279.53125 428.265625 C 280.175781 428.394531 280.820312 428.394531 281.464844 428.136719 C 281.980469 428.652344 282.628906 429.167969 283.273438 429.683594 C 284.691406 430.847656 286.109375 432.007812 287.65625 433.039062 C 290.625 435.101562 293.589844 436.910156 296.8125 438.457031 C 317.964844 448.644531 344.273438 448.128906 364.652344 436.132812 C 363.75 441.808594 365.039062 447.742188 368.265625 452.644531 C 370.328125 455.871094 373.035156 458.578125 376.390625 460.382812 C 380.644531 462.707031 385.417969 463.351562 390.1875 463.609375 C 394.316406 463.867188 398.574219 463.738281 402.699219 463.996094 C 404.761719 464.125 406.957031 464.382812 409.019531 464.640625 C 409.019531 466.703125 409.148438 468.769531 409.148438 470.703125 C 408.632812 472.894531 408.117188 474.960938 407.601562 477.023438 C 402.3125 497.789062 395.605469 518.039062 387.480469 537.773438 C 379.355469 557.640625 369.8125 576.988281 358.976562 595.5625 C 357.558594 598.140625 355.496094 601.363281 352.660156 601.753906 C 352.273438 601.105469 351.625 600.589844 350.980469 600.460938 C 350.335938 600.332031 349.691406 600.460938 349.175781 600.847656 C 345.308594 598.65625 342.46875 594.269531 339.632812 590.917969 C 332.539062 582.144531 325.574219 573.375 318.609375 564.476562 C 304.9375 546.675781 291.65625 528.617188 278.886719 510.171875 C 266.503906 492.242188 254.640625 474.054688 243.160156 455.609375 C 243.679688 455.480469 244.324219 455.351562 244.96875 455.351562 Z M 356.011719 620.195312 C 356.914062 624.066406 357.558594 628.96875 355.625 632.707031 C 354.851562 634.128906 353.820312 635.289062 352.144531 635.546875 C 350.851562 635.804688 349.5625 635.417969 349.046875 634.257812 C 348.144531 632.191406 348.660156 628.96875 348.660156 626.777344 C 348.789062 624.195312 348.917969 621.617188 349.304688 619.164062 C 349.691406 615.941406 350.335938 612.84375 351.109375 609.75 C 353.433594 612.714844 355.109375 616.328125 356.011719 620.195312 Z M 247.804688 689.976562 C 247.546875 690.367188 247.417969 690.882812 247.546875 691.398438 C 248.578125 698.234375 247.546875 705.328125 244.582031 711.519531 C 244.453125 711.519531 244.324219 711.519531 244.195312 711.519531 C 233.230469 711.132812 222.011719 711.132812 211.175781 708.679688 C 202.019531 706.617188 193.25 702.488281 188.089844 694.363281 C 187.960938 694.234375 187.832031 693.976562 187.703125 693.847656 C 187.703125 691.398438 187.574219 688.816406 187.574219 686.367188 C 187.1875 661.988281 186.800781 637.738281 186.414062 613.488281 C 186.285156 604.847656 186.027344 596.078125 186.027344 587.433594 C 189.121094 590.660156 192.605469 593.496094 196.214844 596.078125 C 212.597656 607.816406 233.101562 613.746094 253.222656 612.070312 C 252.320312 638.125 250.640625 664.050781 247.804688 689.976562 Z M 469.894531 701.714844 C 450.160156 704.167969 430.300781 706.101562 410.4375 707.648438 C 382.835938 709.84375 355.109375 711.261719 327.378906 711.90625 C 301.585938 712.550781 275.921875 712.421875 250.125 711.648438 C 252.578125 705.457031 253.480469 698.621094 252.707031 691.914062 C 252.707031 691.785156 252.707031 691.785156 252.707031 691.65625 C 253.867188 681.335938 254.769531 671.015625 255.671875 660.699219 C 258.507812 623.9375 259.414062 587.175781 258.121094 550.285156 C 257.992188 546.933594 252.835938 547.320312 252.964844 550.671875 C 253.351562 560.992188 253.480469 571.441406 253.609375 581.757812 C 253.609375 590.144531 253.480469 598.398438 253.351562 606.78125 C 248.0625 607.296875 242.773438 607.296875 237.617188 606.652344 C 218.140625 604.460938 199.828125 595.175781 186.800781 580.597656 C 186.542969 580.339844 186.414062 580.210938 186.15625 580.082031 C 186.285156 568.601562 186.671875 557.125 187.703125 545.644531 C 189.769531 525.132812 193.636719 503.722656 203.566406 485.40625 C 207.695312 477.667969 213.113281 470.445312 219.945312 464.898438 C 225.363281 460.640625 231.167969 457.804688 237.617188 456.257812 C 239.035156 458.707031 240.582031 461.027344 242.128906 463.480469 C 254.511719 483.214844 267.28125 502.5625 280.691406 521.523438 C 294.105469 540.484375 307.90625 559.1875 322.351562 577.375 C 325.960938 581.886719 329.574219 586.402344 333.183594 590.917969 C 336.535156 595.042969 339.761719 599.6875 343.757812 603.171875 C 344.792969 603.945312 345.824219 604.71875 346.855469 605.363281 C 345.179688 611.554688 344.144531 617.746094 343.757812 624.195312 C 343.371094 629.355469 342.210938 637.609375 348.273438 640.0625 C 353.175781 641.996094 358.460938 639.15625 360.527344 634.515625 C 362.847656 629.355469 362.203125 623.164062 360.785156 617.875 C 359.621094 613.746094 357.6875 609.75 355.109375 606.265625 C 355.753906 606.007812 356.269531 605.75 356.914062 605.492188 C 361.171875 603.042969 363.492188 597.625 365.8125 593.496094 C 376.777344 574.277344 386.320312 554.15625 394.445312 533.519531 C 402.183594 513.914062 408.503906 493.792969 413.53125 473.410156 C 413.917969 472.894531 414.179688 472.25 414.179688 471.605469 C 414.179688 471.476562 414.179688 471.21875 414.179688 471.089844 C 414.308594 470.703125 414.308594 470.445312 414.4375 470.058594 C 414.566406 469.285156 414.4375 468.640625 414.046875 468.121094 L 413.917969 465.414062 C 422.175781 466.960938 430.171875 469.542969 437.78125 473.152344 C 452.480469 480.117188 464.734375 490.953125 474.019531 504.238281 C 483.953125 518.554688 490.011719 534.550781 494.140625 551.191406 C 494.011719 551.449219 493.753906 551.578125 493.625 551.964844 C 487.691406 565.121094 475.566406 574.664062 461.511719 577.632812 C 461.253906 577.632812 461.125 577.761719 460.867188 577.890625 C 459.832031 568.601562 458.800781 559.445312 457.769531 550.285156 C 457.382812 546.933594 452.222656 547.320312 452.609375 550.671875 C 453.644531 560.476562 454.804688 570.28125 455.835938 580.082031 C 459.703125 614.78125 463.574219 649.605469 467.3125 684.304688 C 467.441406 685.207031 467.957031 685.851562 468.476562 686.238281 Z M 640.265625 601.363281 C 636.78125 606.394531 633.171875 611.554688 629.6875 616.585938 C 615.113281 637.480469 600.542969 658.375 585.96875 679.273438 C 585.453125 679.917969 585.195312 680.820312 585.453125 681.59375 C 585.066406 682.109375 584.679688 682.625 584.417969 683.140625 C 581.453125 683.789062 578.359375 684.304688 575.390625 684.949219 C 548.179688 690.238281 520.835938 694.878906 493.367188 698.621094 C 487.304688 699.394531 481.242188 700.296875 475.308594 700.941406 L 473.761719 677.855469 C 473.632812 676.691406 472.988281 676.046875 472.214844 675.660156 C 471.441406 668.4375 470.667969 661.34375 469.894531 654.121094 L 461.898438 582.015625 C 462.414062 582.273438 463.058594 582.273438 463.703125 582.144531 C 477.246094 579.308594 489.367188 570.410156 496.332031 558.542969 C 499.6875 574.664062 501.492188 591.304688 503.167969 607.425781 C 503.167969 607.945312 503.425781 608.460938 503.683594 608.71875 C 498.007812 621.617188 490.914062 633.871094 482.53125 645.089844 C 480.597656 647.800781 484.46875 651.152344 486.402344 648.445312 C 496.074219 635.546875 504.070312 621.488281 510.132812 606.652344 C 512.839844 599.945312 515.164062 593.238281 517.097656 586.273438 C 518.773438 580.597656 519.675781 574.535156 522.253906 569.117188 C 524.835938 563.703125 528.960938 559.832031 535.28125 560.476562 C 539.023438 560.863281 542.761719 562.152344 546.375 563.3125 C 549.984375 564.476562 553.726562 565.636719 557.335938 566.796875 C 585.710938 576.34375 613.4375 587.949219 640.265625 601.363281 Z M 630.71875 591.046875 C 622.207031 587.046875 613.695312 583.179688 605.054688 579.566406 C 605.828125 579.695312 606.730469 579.824219 607.503906 579.953125 C 615.371094 581.113281 623.371094 579.953125 630.332031 576.085938 C 633.558594 574.277344 636.265625 571.957031 638.199219 569.117188 C 638.714844 570.28125 639.621094 571.441406 640.652344 572.34375 C 641.296875 572.859375 641.941406 573.246094 642.585938 573.632812 C 638.585938 579.4375 634.589844 585.242188 630.71875 591.046875 Z M 667.605469 545.773438 C 666.058594 549.125 664.382812 552.222656 662.578125 555.445312 C 660.898438 558.285156 659.351562 561.25 657.417969 563.832031 C 655.613281 566.28125 653.417969 568.472656 650.582031 569.503906 C 648.261719 570.28125 645.421875 570.152344 643.617188 568.085938 C 640.910156 564.863281 642.328125 559.832031 644.132812 555.832031 C 653.804688 555.960938 656 544.742188 658.191406 537.257812 C 660.511719 529.132812 663.480469 520.878906 664.769531 512.363281 C 668.894531 516.105469 671.089844 521.394531 671.476562 526.941406 C 671.992188 533.519531 670.1875 539.839844 667.605469 545.773438 Z M 667.605469 545.773438 " fill-opacity="1" fill-rule="nonzero"/></g><path fill="#f4c69f" d="M 630.847656 522.8125 C 629.6875 526.425781 628.65625 530.035156 627.109375 533.519531 C 625.820312 536.484375 623.886719 539.195312 620.53125 539.96875 C 614.339844 541.515625 609.183594 535.710938 610.859375 529.648438 C 610.988281 529.132812 610.988281 528.746094 610.859375 528.359375 C 611.117188 527.585938 611.375 526.683594 611.632812 526.039062 C 613.824219 519.332031 615.761719 512.492188 616.535156 505.527344 C 617.308594 498.691406 616.921875 491.726562 614.855469 485.148438 C 613.695312 481.28125 611.632812 477.796875 609.054688 474.703125 C 609.183594 474.570312 609.183594 474.570312 609.3125 474.441406 C 609.570312 474.183594 609.699219 473.925781 609.957031 473.667969 C 610.085938 473.667969 610.34375 473.667969 610.472656 473.667969 C 617.308594 472.507812 623.628906 475.734375 628.011719 480.890625 C 638.328125 492.757812 635.105469 509.140625 630.847656 522.8125 Z M 640.652344 572.34375 C 639.621094 571.3125 638.714844 570.28125 638.199219 569.117188 C 636.136719 571.957031 633.429688 574.40625 630.332031 576.085938 C 623.371094 579.953125 615.371094 581.113281 607.503906 579.953125 C 606.730469 579.824219 605.828125 579.695312 605.054688 579.566406 C 613.695312 583.179688 622.335938 587.046875 630.71875 591.046875 C 634.71875 585.242188 638.585938 579.4375 642.585938 573.761719 C 641.941406 573.246094 641.296875 572.859375 640.652344 572.34375 Z M 664.769531 512.363281 C 663.480469 520.878906 660.511719 529.132812 658.191406 537.257812 C 656 544.742188 653.804688 555.960938 644.132812 555.832031 C 642.457031 559.832031 640.910156 564.863281 643.617188 568.085938 C 645.292969 570.023438 648.132812 570.28125 650.582031 569.503906 C 653.546875 568.601562 655.742188 566.28125 657.417969 563.832031 C 659.351562 561.25 660.898438 558.285156 662.578125 555.445312 C 664.382812 552.351562 666.058594 549.125 667.605469 545.773438 C 670.316406 539.839844 672.121094 533.519531 671.605469 527.070312 C 670.960938 521.394531 668.894531 516.105469 664.769531 512.363281 Z M 655.226562 488.890625 C 650.96875 484.246094 643.746094 481.019531 637.941406 484.503906 C 637.425781 484.761719 637.039062 484.890625 636.523438 484.890625 C 638.328125 488.632812 639.492188 492.757812 639.75 497.015625 C 640.652344 506.820312 638.070312 516.492188 635.105469 525.78125 C 634.460938 527.714844 633.816406 529.90625 633.042969 531.972656 C 633.171875 532.230469 633.171875 532.488281 633.300781 532.746094 C 633.816406 538.808594 634.589844 547.578125 641.167969 550.027344 C 642.328125 548.609375 644.519531 549.125 645.292969 550.414062 C 650.453125 549.125 651.742188 540.484375 653.03125 536.097656 C 655.484375 527.585938 658.578125 518.941406 659.867188 510.171875 C 660.898438 502.949219 660.511719 494.695312 655.226562 488.890625 Z M 604.796875 477.796875 C 599.765625 471.605469 590.996094 466.832031 582.871094 468.640625 C 573.328125 470.703125 567.78125 481.539062 570.878906 490.695312 C 571.394531 492.371094 570.363281 493.53125 569.074219 493.921875 C 571.652344 496.113281 573.84375 498.5625 575.648438 501.273438 C 576.292969 502.175781 576.8125 503.078125 577.328125 503.851562 C 577.84375 503.59375 578.359375 503.464844 578.875 503.722656 C 582.226562 504.625 585.453125 505.527344 588.804688 506.433594 C 588.804688 503.980469 588.933594 501.53125 589.0625 499.078125 C 589.191406 497.660156 590.867188 496.757812 592.15625 497.015625 C 593.707031 497.273438 594.351562 498.691406 594.222656 500.113281 C 593.707031 506.042969 593.964844 512.105469 594.867188 518.039062 C 595.382812 521.007812 596.027344 523.84375 596.800781 526.8125 C 597.1875 528.230469 597.703125 529.648438 598.21875 531.066406 C 598.605469 531.972656 598.863281 533.390625 599.765625 534.035156 C 601.1875 535.066406 602.863281 533.003906 603.636719 531.972656 C 605.054688 529.90625 605.828125 527.457031 606.601562 525.132812 C 608.410156 519.460938 610.085938 513.785156 610.988281 507.851562 C 612.535156 497.402344 611.761719 486.179688 604.796875 477.796875 Z M 570.492188 552.996094 C 566.234375 544.871094 564.171875 535.96875 564.816406 526.8125 C 564.945312 525.78125 565.71875 525.132812 566.75 524.875 C 564.171875 522.296875 561.980469 519.332031 560.171875 515.976562 C 559.527344 514.816406 559.65625 513.269531 560.816406 512.363281 C 561.851562 511.589844 563.785156 511.847656 564.429688 513.011719 C 566.492188 516.878906 569.332031 520.363281 572.683594 523.199219 C 574.101562 522.039062 576.808594 522.425781 577.070312 524.875 C 577.070312 525.394531 577.199219 525.910156 577.199219 526.554688 C 578.230469 527.199219 579.132812 527.714844 580.164062 528.230469 C 578.746094 520.878906 577.070312 513.398438 573.457031 506.820312 C 569.976562 500.628906 564.429688 494.824219 557.207031 493.015625 C 551.273438 491.597656 544.179688 493.273438 540.183594 498.046875 C 534.765625 504.496094 537.859375 514.042969 539.28125 521.265625 C 541.34375 531.324219 543.40625 541.515625 545.46875 551.578125 C 545.597656 551.964844 545.726562 552.222656 545.726562 552.609375 C 545.726562 552.738281 545.726562 552.867188 545.726562 552.996094 C 545.726562 553.253906 545.855469 553.511719 545.855469 553.640625 C 545.855469 553.898438 545.855469 554.15625 545.855469 554.285156 C 545.988281 554.929688 546.246094 555.574219 546.503906 556.21875 C 546.890625 556.863281 547.148438 557.382812 547.664062 557.898438 C 547.792969 558.027344 547.792969 558.027344 547.921875 558.15625 C 548.050781 558.285156 548.308594 558.542969 548.308594 558.671875 C 549.46875 559.058594 550.5 559.445312 551.53125 559.703125 C 564.300781 563.703125 576.9375 568.214844 589.449219 572.988281 C 581.453125 568.214844 574.875 561.121094 570.492188 552.996094 Z M 570.492188 552.996094 " fill-opacity="1" fill-rule="nonzero"/></svg>